<svg width="318" height="324" viewBox="0 0 318 324" fill="none" xmlns="http://www.w3.org/2000/svg">
<mask id="path-1-outside-1_2_2" maskUnits="userSpaceOnUse" x="0" y="0" width="318" height="324" fill="black">
<rect fill="white" width="318" height="324"/>
<path fill-rule="evenodd" clip-rule="evenodd" d="M18.7384 93.2587L27.8372 105.997L158.86 150.581L289.884 105.997L298.983 93.2587L258.948 35.0262L233.471 41.3953L207.084 28.657L200.715 5H158.86H117.006L110.637 28.657L84.25 41.3953L58.7733 35.0262L18.7384 93.2587ZM31.4767 162.41L36.0262 121.465L158.86 163.32L281.695 121.465L286.244 162.41L278.055 195.166L217.093 223.372L158.86 200.625L100.628 223.372L39.6657 195.166L31.4767 162.41ZM26.9273 203.355L21.468 175.148L6 188.797L26.9273 264.317L96.0785 293.433L94.2587 235.201L26.9273 203.355ZM158.86 214.273L106.997 235.201L108.817 297.983L158.86 318L208.904 297.983L210.724 235.201L158.86 214.273ZM290.794 203.355L296.253 175.148L311.721 188.797L290.794 264.317L221.642 293.433L223.462 235.201L290.794 203.355ZM193.785 171.509L251.108 150.581C253.124 154.06 253.962 156.397 254.747 161.5C255.15 164.113 255.14 166.914 255.035 169.024C254.922 171.288 254.403 173.512 253.552 175.613C250.213 183.849 246 188.656 237.953 193.378C233.551 195.961 228.441 196.985 223.338 196.985H223.067C219.342 196.985 215.615 196.437 212.169 195.024C196.952 188.785 195.723 182.301 193.785 171.509ZM120.085 172.419L62.7618 151.491C60.7455 154.97 59.9077 157.306 59.1223 162.41C58.7201 165.023 58.7299 167.823 58.8351 169.934C58.948 172.198 59.4662 174.422 60.3181 176.523C63.6568 184.759 67.8695 189.566 75.9169 194.288C80.3182 196.87 85.429 197.895 90.532 197.895H90.8023C94.5272 197.895 98.2542 197.347 101.701 195.934C116.918 189.695 118.147 183.211 120.085 172.419Z"/>
</mask>
<path fill-rule="evenodd" clip-rule="evenodd" d="M18.7384 93.2587L27.8372 105.997L158.86 150.581L289.884 105.997L298.983 93.2587L258.948 35.0262L233.471 41.3953L207.084 28.657L200.715 5H158.86H117.006L110.637 28.657L84.25 41.3953L58.7733 35.0262L18.7384 93.2587ZM31.4767 162.41L36.0262 121.465L158.86 163.32L281.695 121.465L286.244 162.41L278.055 195.166L217.093 223.372L158.86 200.625L100.628 223.372L39.6657 195.166L31.4767 162.41ZM26.9273 203.355L21.468 175.148L6 188.797L26.9273 264.317L96.0785 293.433L94.2587 235.201L26.9273 203.355ZM158.86 214.273L106.997 235.201L108.817 297.983L158.86 318L208.904 297.983L210.724 235.201L158.86 214.273ZM290.794 203.355L296.253 175.148L311.721 188.797L290.794 264.317L221.642 293.433L223.462 235.201L290.794 203.355ZM193.785 171.509L251.108 150.581C253.124 154.06 253.962 156.397 254.747 161.5C255.15 164.113 255.14 166.914 255.035 169.024C254.922 171.288 254.403 173.512 253.552 175.613C250.213 183.849 246 188.656 237.953 193.378C233.551 195.961 228.441 196.985 223.338 196.985H223.067C219.342 196.985 215.615 196.437 212.169 195.024C196.952 188.785 195.723 182.301 193.785 171.509ZM120.085 172.419L62.7618 151.491C60.7455 154.97 59.9077 157.306 59.1223 162.41C58.7201 165.023 58.7299 167.823 58.8351 169.934C58.948 172.198 59.4662 174.422 60.3181 176.523C63.6568 184.759 67.8695 189.566 75.9169 194.288C80.3182 196.87 85.429 197.895 90.532 197.895H90.8023C94.5272 197.895 98.2542 197.347 101.701 195.934C116.918 189.695 118.147 183.211 120.085 172.419Z" fill="url(#paint0_linear_2_2)"/>
<path d="M27.8372 105.997L23.7685 108.903L24.7036 110.212L26.2265 110.731L27.8372 105.997ZM18.7384 93.2587L14.6182 90.4261L12.633 93.3136L14.6697 96.1649L18.7384 93.2587ZM158.86 150.581L157.25 155.315L158.86 155.863L160.471 155.315L158.86 150.581ZM289.884 105.997L291.494 110.731L293.017 110.212L293.952 108.903L289.884 105.997ZM298.983 93.2587L303.051 96.1649L305.088 93.3136L303.103 90.4261L298.983 93.2587ZM258.948 35.0262L263.068 32.1935L261.102 29.3338L257.735 30.1755L258.948 35.0262ZM233.471 41.3953L231.297 45.8981L232.927 46.6851L234.684 46.2461L233.471 41.3953ZM207.084 28.657L202.256 29.9568L202.851 32.1654L204.911 33.1597L207.084 28.657ZM200.715 5L205.543 3.70014L204.547 0H200.715V5ZM117.006 5V0H113.174L112.178 3.70013L117.006 5ZM110.637 28.657L112.81 33.1597L114.87 32.1654L115.465 29.9568L110.637 28.657ZM84.25 41.3953L83.0373 46.2461L84.7935 46.6851L86.4237 45.8981L84.25 41.3953ZM58.7733 35.0262L59.9859 30.1755L56.6191 29.3338L54.653 32.1935L58.7733 35.0262ZM36.0262 121.465L37.6388 116.732L31.7444 114.724L31.0567 120.913L36.0262 121.465ZM31.4767 162.41L26.5073 161.858L26.4081 162.751L26.626 163.623L31.4767 162.41ZM158.86 163.32L157.248 168.053L158.86 168.602L160.473 168.053L158.86 163.32ZM281.695 121.465L286.664 120.913L285.977 114.724L280.082 116.732L281.695 121.465ZM286.244 162.41L291.095 163.623L291.313 162.751L291.214 161.858L286.244 162.41ZM278.055 195.166L280.155 199.704L282.326 198.699L282.906 196.378L278.055 195.166ZM217.093 223.372L215.274 228.029L217.259 228.805L219.193 227.91L217.093 223.372ZM158.86 200.625L160.68 195.968L158.86 195.257L157.041 195.968L158.86 200.625ZM100.628 223.372L98.5283 227.91L100.462 228.805L102.447 228.029L100.628 223.372ZM39.6657 195.166L34.815 196.378L35.3951 198.699L37.5661 199.704L39.6657 195.166ZM21.468 175.148L26.3769 174.198L24.7156 165.615L18.1599 171.399L21.468 175.148ZM26.9273 203.355L22.0184 204.305L22.4997 206.792L24.7895 207.875L26.9273 203.355ZM6 188.797L2.69189 185.047L0.346188 187.117L1.18158 190.132L6 188.797ZM26.9273 264.317L22.1089 265.652L22.7555 267.985L24.987 268.925L26.9273 264.317ZM96.0785 293.433L94.1382 298.041L101.319 301.065L101.076 293.277L96.0785 293.433ZM94.2587 235.201L99.2563 235.044L99.1608 231.988L96.3965 230.681L94.2587 235.201ZM106.997 235.201L105.126 230.564L101.898 231.866L101.999 235.345L106.997 235.201ZM158.86 214.273L160.731 209.637L158.86 208.882L156.989 209.637L158.86 214.273ZM108.817 297.983L103.819 298.127L103.914 301.407L106.96 302.625L108.817 297.983ZM158.86 318L157.004 322.642L158.86 323.385L160.717 322.642L158.86 318ZM208.904 297.983L210.761 302.625L213.807 301.407L213.902 298.127L208.904 297.983ZM210.724 235.201L215.722 235.345L215.823 231.866L212.595 230.564L210.724 235.201ZM296.253 175.148L299.561 171.399L293.005 165.615L291.344 174.198L296.253 175.148ZM290.794 203.355L292.931 207.875L295.221 206.792L295.702 204.305L290.794 203.355ZM311.721 188.797L316.539 190.132L317.375 187.117L315.029 185.047L311.721 188.797ZM290.794 264.317L292.734 268.925L294.965 267.985L295.612 265.652L290.794 264.317ZM221.642 293.433L216.645 293.277L216.401 301.065L223.583 298.041L221.642 293.433ZM223.462 235.201L221.324 230.681L218.56 231.988L218.465 235.044L223.462 235.201ZM251.108 150.581L255.434 148.074L253.331 144.447L249.393 145.885L251.108 150.581ZM193.785 171.509L192.07 166.812L188.121 168.254L188.864 172.392L193.785 171.509ZM254.747 161.5L259.689 160.739L259.689 160.739L254.747 161.5ZM255.035 169.024L260.028 169.273L260.028 169.273L255.035 169.024ZM253.552 175.613L248.918 173.735L248.918 173.735L253.552 175.613ZM237.953 193.378L240.483 197.69L240.483 197.69L237.953 193.378ZM212.169 195.024L214.066 190.397L214.066 190.397L212.169 195.024ZM62.7618 151.491L64.4765 146.794L60.5383 145.357L58.436 148.984L62.7618 151.491ZM120.085 172.419L125.006 173.302L125.749 169.164L121.799 167.722L120.085 172.419ZM59.1223 162.41L64.0641 163.17L64.0641 163.17L59.1223 162.41ZM58.8351 169.934L53.8413 170.183L58.8351 169.934ZM60.3181 176.523L64.9517 174.645L64.9517 174.645L60.3181 176.523ZM75.9169 194.288L78.4474 189.975L78.4474 189.975L75.9169 194.288ZM101.701 195.934L99.8041 191.307L99.8041 191.307L101.701 195.934ZM31.9059 103.091L22.807 90.3525L14.6697 96.1649L23.7685 108.903L31.9059 103.091ZM160.471 145.848L29.4479 101.264L26.2265 110.731L157.25 155.315L160.471 145.848ZM288.273 101.264L157.25 145.848L160.471 155.315L291.494 110.731L288.273 101.264ZM294.914 90.3525L285.815 103.091L293.952 108.903L303.051 96.1649L294.914 90.3525ZM254.827 37.8588L294.862 96.0914L303.103 90.4261L263.068 32.1935L254.827 37.8588ZM234.684 46.2461L260.16 39.8769L257.735 30.1755L232.258 36.5446L234.684 46.2461ZM204.911 33.1597L231.297 45.8981L235.645 36.8926L209.258 24.1542L204.911 33.1597ZM195.887 6.29986L202.256 29.9568L211.912 27.3571L205.543 3.70014L195.887 6.29986ZM158.86 10H200.715V0H158.86V10ZM117.006 10H158.86V0H117.006V10ZM115.465 29.9568L121.834 6.29987L112.178 3.70013L105.809 27.3571L115.465 29.9568ZM86.4237 45.8981L112.81 33.1597L108.463 24.1542L82.0763 36.8926L86.4237 45.8981ZM57.5606 39.8769L83.0373 46.2461L85.4627 36.5446L59.9859 30.1755L57.5606 39.8769ZM22.8586 96.0914L62.8935 37.8588L54.653 32.1935L14.6182 90.4261L22.8586 96.0914ZM31.0567 120.913L26.5073 161.858L36.4462 162.962L40.9956 122.017L31.0567 120.913ZM160.473 158.587L37.6388 116.732L34.4135 126.198L157.248 168.053L160.473 158.587ZM280.082 116.732L157.248 158.587L160.473 168.053L283.307 126.198L280.082 116.732ZM291.214 161.858L286.664 120.913L276.725 122.017L281.275 162.962L291.214 161.858ZM282.906 196.378L291.095 163.623L281.393 161.197L273.205 193.953L282.906 196.378ZM219.193 227.91L280.155 199.704L275.956 190.628L214.993 218.834L219.193 227.91ZM157.041 205.282L215.274 228.029L218.912 218.715L160.68 195.968L157.041 205.282ZM102.447 228.029L160.68 205.282L157.041 195.968L98.8086 218.715L102.447 228.029ZM37.5661 199.704L98.5283 227.91L102.727 218.834L41.7653 190.628L37.5661 199.704ZM26.626 163.623L34.815 196.378L44.5164 193.953L36.3275 161.197L26.626 163.623ZM16.5591 176.098L22.0184 204.305L31.8362 202.405L26.3769 174.198L16.5591 176.098ZM9.30811 192.546L24.7761 178.897L18.1599 171.399L2.69189 185.047L9.30811 192.546ZM31.7457 262.982L10.8184 187.461L1.18158 190.132L22.1089 265.652L31.7457 262.982ZM98.0188 288.825L28.8676 259.709L24.987 268.925L94.1382 298.041L98.0188 288.825ZM89.2612 235.357L91.0809 293.589L101.076 293.277L99.2563 235.044L89.2612 235.357ZM24.7895 207.875L92.1209 239.721L96.3965 230.681L29.0651 198.835L24.7895 207.875ZM108.868 239.837L160.731 218.91L156.989 209.637L105.126 230.564L108.868 239.837ZM113.815 297.838L111.995 235.056L101.999 235.345L103.819 298.127L113.815 297.838ZM160.717 313.358L110.674 293.34L106.96 302.625L157.004 322.642L160.717 313.358ZM207.047 293.34L157.004 313.358L160.717 322.642L210.761 302.625L207.047 293.34ZM205.726 235.056L203.906 297.838L213.902 298.127L215.722 235.345L205.726 235.056ZM156.989 218.91L208.853 239.837L212.595 230.564L160.731 209.637L156.989 218.91ZM291.344 174.198L285.885 202.405L295.702 204.305L301.162 176.098L291.344 174.198ZM315.029 185.047L299.561 171.399L292.945 178.897L308.413 192.546L315.029 185.047ZM295.612 265.652L316.539 190.132L306.902 187.461L285.975 262.982L295.612 265.652ZM223.583 298.041L292.734 268.925L288.853 259.709L219.702 288.825L223.583 298.041ZM218.465 235.044L216.645 293.277L226.64 293.589L228.46 235.357L218.465 235.044ZM288.656 198.835L221.324 230.681L225.6 239.721L292.931 207.875L288.656 198.835ZM249.393 145.885L192.07 166.812L195.5 176.205L252.822 155.278L249.393 145.885ZM259.689 160.739C258.823 155.112 257.806 152.167 255.434 148.074L246.782 153.089C248.442 155.954 249.101 157.681 249.805 162.261L259.689 160.739ZM260.028 169.273C260.141 167.009 260.165 163.83 259.689 160.739L249.805 162.261C250.134 164.397 250.138 166.818 250.041 168.775L260.028 169.273ZM258.185 177.492C259.233 174.908 259.886 172.135 260.028 169.273L250.041 168.775C249.958 170.441 249.574 172.116 248.918 173.735L258.185 177.492ZM240.483 197.69C244.821 195.145 248.35 192.445 251.276 189.111C254.209 185.77 256.362 181.99 258.185 177.492L248.918 173.735C247.403 177.472 245.78 180.214 243.76 182.515C241.733 184.825 239.132 186.889 235.422 189.066L240.483 197.69ZM223.338 201.985C229.076 201.985 235.121 200.837 240.483 197.69L235.422 189.066C231.982 191.084 227.806 191.985 223.338 191.985V201.985ZM223.067 201.985H223.338V191.985H223.067V201.985ZM210.272 199.65C214.465 201.369 218.869 201.985 223.067 201.985V191.985C219.816 191.985 216.765 191.504 214.066 190.397L210.272 199.65ZM188.864 172.392C189.794 177.576 190.706 182.958 193.812 187.71C197.037 192.642 202.183 196.334 210.272 199.65L214.066 190.397C206.938 187.475 203.861 184.806 202.182 182.238C200.386 179.49 199.713 176.234 198.706 170.625L188.864 172.392ZM61.0471 156.188L118.37 177.115L121.799 167.722L64.4765 146.794L61.0471 156.188ZM64.0641 163.17C64.7689 158.591 65.4272 156.864 67.0877 153.999L58.436 148.984C56.0639 153.076 55.0465 156.022 54.1805 161.649L64.0641 163.17ZM63.8289 169.685C63.7313 167.728 63.7353 165.307 64.0641 163.17L54.1805 161.649C53.7049 164.74 53.7284 167.919 53.8413 170.183L63.8289 169.685ZM64.9517 174.645C64.2954 173.026 63.912 171.351 63.8289 169.685L53.8413 170.183C53.984 173.045 54.637 175.818 55.6844 178.402L64.9517 174.645ZM78.4474 189.975C74.738 187.799 72.1369 185.735 70.1095 183.425C68.0897 181.124 66.4669 178.382 64.9517 174.645L55.6844 178.402C57.5079 182.9 59.6608 186.68 62.5939 190.021C65.5194 193.355 69.0484 196.055 73.3865 198.6L78.4474 189.975ZM90.532 192.895C86.0639 192.895 81.888 191.994 78.4474 189.975L73.3865 198.6C78.7484 201.747 84.7941 202.895 90.532 202.895V192.895ZM90.8023 192.895H90.532V202.895H90.8023V192.895ZM99.8041 191.307C97.1042 192.414 94.0538 192.895 90.8023 192.895V202.895C95.0006 202.895 99.4043 202.279 103.597 200.56L99.8041 191.307ZM115.163 171.535C114.156 177.144 113.484 180.4 111.687 183.148C110.009 185.715 106.932 188.385 99.8041 191.307L103.597 200.56C111.687 197.244 116.833 193.552 120.057 188.62C123.164 183.868 124.075 178.485 125.006 173.302L115.163 171.535Z" fill="white" mask="url(#path-1-outside-1_2_2)"/>
<defs>
<linearGradient id="paint0_linear_2_2" x1="-15.8372" y1="5" x2="311.721" y2="318" gradientUnits="userSpaceOnUse">
<stop stop-color="#FF1800"/>
<stop offset="0.995" stop-color="#FF6800"/>
</linearGradient>
</defs>
</svg>
