<svg width="1121" height="400" viewBox="0 0 1121 400" fill="none" xmlns="http://www.w3.org/2000/svg">
<mask id="path-1-outside-1_1_19" maskUnits="userSpaceOnUse" x="73" y="38" width="318" height="324" fill="black">
<rect fill="white" x="73" y="38" width="318" height="324"/>
<path fill-rule="evenodd" clip-rule="evenodd" d="M91.7384 131.259L100.837 143.997L231.86 188.581L362.884 143.997L371.983 131.259L331.948 73.0262L306.471 79.3953L280.084 66.657L273.715 43H231.86H190.006L183.637 66.657L157.25 79.3953L131.773 73.0262L91.7384 131.259ZM104.477 200.41L109.026 159.465L231.86 201.32L354.695 159.465L359.244 200.41L351.055 233.166L290.093 261.372L231.86 238.625L173.628 261.372L112.666 233.166L104.477 200.41ZM99.9273 241.355L94.468 213.148L79 226.797L99.9273 302.317L169.078 331.433L167.259 273.201L99.9273 241.355ZM231.86 252.273L179.997 273.201L181.817 335.983L231.86 356L281.904 335.983L283.724 273.201L231.86 252.273ZM363.794 241.355L369.253 213.148L384.721 226.797L363.794 302.317L294.642 331.433L296.462 273.201L363.794 241.355ZM266.785 209.509L324.108 188.581C326.124 192.06 326.962 194.397 327.747 199.5C328.15 202.113 328.14 204.914 328.035 207.024C327.922 209.288 327.403 211.512 326.552 213.613C323.213 221.849 319 226.656 310.953 231.378C306.551 233.961 301.441 234.985 296.338 234.985H296.067C292.342 234.985 288.615 234.437 285.169 233.024C269.952 226.785 268.723 220.301 266.785 209.509ZM193.085 210.419L135.762 189.491C133.746 192.97 132.908 195.306 132.122 200.41C131.72 203.023 131.73 205.823 131.835 207.934C131.948 210.198 132.466 212.422 133.318 214.523C136.657 222.759 140.869 227.566 148.917 232.288C153.318 234.87 158.429 235.895 163.532 235.895H163.802C167.527 235.895 171.254 235.347 174.701 233.934C189.918 227.695 191.147 221.211 193.085 210.419Z"/>
</mask>
<path fill-rule="evenodd" clip-rule="evenodd" d="M91.7384 131.259L100.837 143.997L231.86 188.581L362.884 143.997L371.983 131.259L331.948 73.0262L306.471 79.3953L280.084 66.657L273.715 43H231.86H190.006L183.637 66.657L157.25 79.3953L131.773 73.0262L91.7384 131.259ZM104.477 200.41L109.026 159.465L231.86 201.32L354.695 159.465L359.244 200.41L351.055 233.166L290.093 261.372L231.86 238.625L173.628 261.372L112.666 233.166L104.477 200.41ZM99.9273 241.355L94.468 213.148L79 226.797L99.9273 302.317L169.078 331.433L167.259 273.201L99.9273 241.355ZM231.86 252.273L179.997 273.201L181.817 335.983L231.86 356L281.904 335.983L283.724 273.201L231.86 252.273ZM363.794 241.355L369.253 213.148L384.721 226.797L363.794 302.317L294.642 331.433L296.462 273.201L363.794 241.355ZM266.785 209.509L324.108 188.581C326.124 192.06 326.962 194.397 327.747 199.5C328.15 202.113 328.14 204.914 328.035 207.024C327.922 209.288 327.403 211.512 326.552 213.613C323.213 221.849 319 226.656 310.953 231.378C306.551 233.961 301.441 234.985 296.338 234.985H296.067C292.342 234.985 288.615 234.437 285.169 233.024C269.952 226.785 268.723 220.301 266.785 209.509ZM193.085 210.419L135.762 189.491C133.746 192.97 132.908 195.306 132.122 200.41C131.72 203.023 131.73 205.823 131.835 207.934C131.948 210.198 132.466 212.422 133.318 214.523C136.657 222.759 140.869 227.566 148.917 232.288C153.318 234.87 158.429 235.895 163.532 235.895H163.802C167.527 235.895 171.254 235.347 174.701 233.934C189.918 227.695 191.147 221.211 193.085 210.419Z" fill="url(#paint0_linear_1_19)"/>
<path d="M100.837 143.997L96.7685 146.903L97.7036 148.212L99.2265 148.731L100.837 143.997ZM91.7384 131.259L87.6182 128.426L85.633 131.314L87.6697 134.165L91.7384 131.259ZM231.86 188.581L230.25 193.315L231.86 193.863L233.471 193.315L231.86 188.581ZM362.884 143.997L364.494 148.731L366.017 148.212L366.952 146.903L362.884 143.997ZM371.983 131.259L376.051 134.165L378.088 131.314L376.103 128.426L371.983 131.259ZM331.948 73.0262L336.068 70.1935L334.102 67.3338L330.735 68.1755L331.948 73.0262ZM306.471 79.3953L304.297 83.8981L305.927 84.6851L307.684 84.2461L306.471 79.3953ZM280.084 66.657L275.256 67.9568L275.851 70.1654L277.911 71.1597L280.084 66.657ZM273.715 43L278.543 41.7001L277.547 38H273.715V43ZM190.006 43V38H186.174L185.178 41.7001L190.006 43ZM183.637 66.657L185.81 71.1597L187.87 70.1654L188.465 67.9568L183.637 66.657ZM157.25 79.3953L156.037 84.2461L157.794 84.6851L159.424 83.8981L157.25 79.3953ZM131.773 73.0262L132.986 68.1755L129.619 67.3338L127.653 70.1935L131.773 73.0262ZM109.026 159.465L110.639 154.732L104.744 152.724L104.057 158.913L109.026 159.465ZM104.477 200.41L99.5073 199.858L99.4081 200.751L99.626 201.623L104.477 200.41ZM231.86 201.32L230.248 206.053L231.86 206.602L233.473 206.053L231.86 201.32ZM354.695 159.465L359.664 158.913L358.977 152.724L353.082 154.732L354.695 159.465ZM359.244 200.41L364.095 201.623L364.313 200.751L364.214 199.858L359.244 200.41ZM351.055 233.166L353.155 237.704L355.326 236.699L355.906 234.378L351.055 233.166ZM290.093 261.372L288.274 266.029L290.259 266.805L292.193 265.91L290.093 261.372ZM231.86 238.625L233.68 233.968L231.86 233.257L230.041 233.968L231.86 238.625ZM173.628 261.372L171.528 265.91L173.462 266.805L175.447 266.029L173.628 261.372ZM112.666 233.166L107.815 234.378L108.395 236.699L110.566 237.704L112.666 233.166ZM94.468 213.148L99.3769 212.198L97.7156 203.615L91.1599 209.399L94.468 213.148ZM99.9273 241.355L95.0184 242.305L95.4997 244.792L97.7895 245.875L99.9273 241.355ZM79 226.797L75.6919 223.047L73.3462 225.117L74.1816 228.132L79 226.797ZM99.9273 302.317L95.1089 303.652L95.7555 305.985L97.987 306.925L99.9273 302.317ZM169.078 331.433L167.138 336.041L174.319 339.065L174.076 331.277L169.078 331.433ZM167.259 273.201L172.256 273.044L172.161 269.988L169.397 268.681L167.259 273.201ZM179.997 273.201L178.126 268.564L174.898 269.866L174.999 273.345L179.997 273.201ZM231.86 252.273L233.731 247.637L231.86 246.882L229.989 247.637L231.86 252.273ZM181.817 335.983L176.819 336.127L176.914 339.407L179.96 340.625L181.817 335.983ZM231.86 356L230.004 360.642L231.86 361.385L233.717 360.642L231.86 356ZM281.904 335.983L283.761 340.625L286.807 339.407L286.902 336.127L281.904 335.983ZM283.724 273.201L288.722 273.345L288.823 269.866L285.595 268.564L283.724 273.201ZM369.253 213.148L372.561 209.399L366.005 203.615L364.344 212.198L369.253 213.148ZM363.794 241.355L365.931 245.875L368.221 244.792L368.702 242.305L363.794 241.355ZM384.721 226.797L389.539 228.132L390.375 225.117L388.029 223.047L384.721 226.797ZM363.794 302.317L365.734 306.925L367.965 305.985L368.612 303.652L363.794 302.317ZM294.642 331.433L289.645 331.277L289.401 339.065L296.583 336.041L294.642 331.433ZM296.462 273.201L294.324 268.681L291.56 269.988L291.465 273.044L296.462 273.201ZM324.108 188.581L328.434 186.074L326.331 182.447L322.393 183.885L324.108 188.581ZM266.785 209.509L265.07 204.812L261.121 206.254L261.864 210.392L266.785 209.509ZM327.747 199.5L332.689 198.739L327.747 199.5ZM328.035 207.024L333.028 207.273V207.273L328.035 207.024ZM326.552 213.613L321.918 211.735L321.918 211.735L326.552 213.613ZM310.953 231.378L313.483 235.69H313.483L310.953 231.378ZM285.169 233.024L287.066 228.397H287.066L285.169 233.024ZM135.762 189.491L137.477 184.794L133.538 183.357L131.436 186.984L135.762 189.491ZM193.085 210.419L198.006 211.302L198.749 207.164L194.799 205.722L193.085 210.419ZM132.122 200.41L137.064 201.17L132.122 200.41ZM131.835 207.934L126.841 208.183L131.835 207.934ZM133.318 214.523L137.952 212.645L133.318 214.523ZM148.917 232.288L151.447 227.975H151.447L148.917 232.288ZM174.701 233.934L172.804 229.307H172.804L174.701 233.934ZM104.906 141.091L95.807 128.353L87.6697 134.165L96.7685 146.903L104.906 141.091ZM233.471 183.848L102.448 139.264L99.2265 148.731L230.25 193.315L233.471 183.848ZM361.273 139.264L230.25 183.848L233.471 193.315L364.494 148.731L361.273 139.264ZM367.914 128.353L358.815 141.091L366.952 146.903L376.051 134.165L367.914 128.353ZM327.827 75.8588L367.862 134.091L376.103 128.426L336.068 70.1935L327.827 75.8588ZM307.684 84.2461L333.16 77.8769L330.735 68.1755L305.258 74.5446L307.684 84.2461ZM277.911 71.1597L304.297 83.8981L308.645 74.8926L282.258 62.1542L277.911 71.1597ZM268.887 44.2999L275.256 67.9568L284.912 65.3571L278.543 41.7001L268.887 44.2999ZM231.86 48H273.715V38H231.86V48ZM190.006 48H231.86V38H190.006V48ZM188.465 67.9568L194.834 44.2999L185.178 41.7001L178.809 65.3571L188.465 67.9568ZM159.424 83.8981L185.81 71.1597L181.463 62.1542L155.076 74.8926L159.424 83.8981ZM130.561 77.8769L156.037 84.2461L158.463 74.5446L132.986 68.1755L130.561 77.8769ZM95.8586 134.091L135.893 75.8588L127.653 70.1935L87.6182 128.426L95.8586 134.091ZM104.057 158.913L99.5073 199.858L109.446 200.962L113.996 160.017L104.057 158.913ZM233.473 196.587L110.639 154.732L107.414 164.198L230.248 206.053L233.473 196.587ZM353.082 154.732L230.248 196.587L233.473 206.053L356.307 164.198L353.082 154.732ZM364.214 199.858L359.664 158.913L349.725 160.017L354.275 200.962L364.214 199.858ZM355.906 234.378L364.095 201.623L354.393 199.197L346.205 231.953L355.906 234.378ZM292.193 265.91L353.155 237.704L348.956 228.628L287.993 256.834L292.193 265.91ZM230.041 243.282L288.274 266.029L291.912 256.715L233.68 233.968L230.041 243.282ZM175.447 266.029L233.68 243.282L230.041 233.968L171.809 256.715L175.447 266.029ZM110.566 237.704L171.528 265.91L175.727 256.834L114.765 228.628L110.566 237.704ZM99.626 201.623L107.815 234.378L117.516 231.953L109.327 199.197L99.626 201.623ZM89.5591 214.098L95.0184 242.305L104.836 240.405L99.3769 212.198L89.5591 214.098ZM82.3081 230.546L97.7761 216.897L91.1599 209.399L75.6919 223.047L82.3081 230.546ZM104.746 300.982L83.8184 225.461L74.1816 228.132L95.1089 303.652L104.746 300.982ZM171.019 326.825L101.868 297.709L97.987 306.925L167.138 336.041L171.019 326.825ZM162.261 273.357L164.081 331.589L174.076 331.277L172.256 273.044L162.261 273.357ZM97.7895 245.875L165.121 277.721L169.397 268.681L102.065 236.835L97.7895 245.875ZM181.868 277.837L233.731 256.91L229.989 247.637L178.126 268.564L181.868 277.837ZM186.815 335.838L184.995 273.056L174.999 273.345L176.819 336.127L186.815 335.838ZM233.717 351.358L183.674 331.34L179.96 340.625L230.004 360.642L233.717 351.358ZM280.047 331.34L230.004 351.358L233.717 360.642L283.761 340.625L280.047 331.34ZM278.726 273.056L276.906 335.838L286.902 336.127L288.722 273.345L278.726 273.056ZM229.989 256.91L281.853 277.837L285.595 268.564L233.731 247.637L229.989 256.91ZM364.344 212.198L358.885 240.405L368.702 242.305L374.162 214.098L364.344 212.198ZM388.029 223.047L372.561 209.399L365.945 216.897L381.413 230.546L388.029 223.047ZM368.612 303.652L389.539 228.132L379.902 225.461L358.975 300.982L368.612 303.652ZM296.583 336.041L365.734 306.925L361.853 297.709L292.702 326.825L296.583 336.041ZM291.465 273.044L289.645 331.277L299.64 331.589L301.46 273.357L291.465 273.044ZM361.656 236.835L294.324 268.681L298.6 277.721L365.931 245.875L361.656 236.835ZM322.393 183.885L265.07 204.812L268.5 214.206L325.822 193.278L322.393 183.885ZM332.689 198.739C331.823 193.112 330.806 190.167 328.434 186.074L319.782 191.089C321.442 193.954 322.101 195.681 322.805 200.261L332.689 198.739ZM333.028 207.273C333.141 205.009 333.165 201.83 332.689 198.739L322.805 200.261C323.134 202.397 323.138 204.818 323.041 206.775L333.028 207.273ZM331.185 215.492C332.233 212.908 332.886 210.135 333.028 207.273L323.041 206.775C322.958 208.441 322.574 210.116 321.918 211.735L331.185 215.492ZM313.483 235.69C317.821 233.145 321.35 230.445 324.276 227.111C327.209 223.77 329.362 219.99 331.185 215.492L321.918 211.735C320.403 215.472 318.78 218.214 316.76 220.515C314.733 222.825 312.132 224.889 308.422 227.066L313.483 235.69ZM296.338 239.985C302.076 239.985 308.121 238.837 313.483 235.69L308.422 227.066C304.982 229.084 300.806 229.985 296.338 229.985V239.985ZM296.067 239.985H296.338V229.985H296.067V239.985ZM283.272 237.65C287.465 239.369 291.869 239.985 296.067 239.985V229.985C292.816 229.985 289.765 229.504 287.066 228.397L283.272 237.65ZM261.864 210.392C262.794 215.576 263.706 220.958 266.812 225.71C270.037 230.642 275.183 234.334 283.272 237.65L287.066 228.397C279.938 225.475 276.861 222.806 275.182 220.238C273.386 217.49 272.713 214.234 271.706 208.625L261.864 210.392ZM134.047 194.188L191.37 215.115L194.799 205.722L137.477 184.794L134.047 194.188ZM137.064 201.17C137.769 196.591 138.427 194.864 140.088 191.999L131.436 186.984C129.064 191.076 128.046 194.022 127.18 199.649L137.064 201.17ZM136.829 207.685C136.731 205.728 136.735 203.307 137.064 201.17L127.18 199.649C126.705 202.74 126.728 205.919 126.841 208.183L136.829 207.685ZM137.952 212.645C137.295 211.026 136.912 209.351 136.829 207.685L126.841 208.183C126.984 211.045 127.637 213.818 128.684 216.402L137.952 212.645ZM151.447 227.975C147.738 225.799 145.137 223.735 143.11 221.425C141.09 219.124 139.467 216.382 137.952 212.645L128.684 216.402C130.508 220.9 132.661 224.68 135.594 228.021C138.519 231.355 142.048 234.055 146.386 236.6L151.447 227.975ZM163.532 230.895C159.064 230.895 154.888 229.994 151.447 227.975L146.386 236.6C151.748 239.747 157.794 240.895 163.532 240.895V230.895ZM163.802 230.895H163.532V240.895H163.802V230.895ZM172.804 229.307C170.104 230.414 167.054 230.895 163.802 230.895V240.895C168.001 240.895 172.404 240.279 176.597 238.56L172.804 229.307ZM188.163 209.535C187.156 215.144 186.484 218.4 184.687 221.148C183.009 223.715 179.932 226.385 172.804 229.307L176.597 238.56C184.687 235.244 189.833 231.552 193.057 226.62C196.164 221.868 197.075 216.485 198.006 211.302L188.163 209.535Z" fill="white" mask="url(#path-1-outside-1_1_19)"/>
<mask id="path-3-outside-2_1_19" maskUnits="userSpaceOnUse" x="432" y="152" width="612" height="114" fill="black">
<rect fill="white" x="432" y="152" width="612" height="114"/>
<path d="M461.028 235.488C461.028 236.64 457.608 237.216 450.768 237.216C443.856 237.216 440.4 236.676 440.4 235.596V165.18C440.4 162.66 441.732 161.4 444.396 161.4H465.024C483.96 161.4 493.428 168.78 493.428 183.54C493.428 188.004 492.564 192.072 490.836 195.744C489.108 199.344 486.66 202.224 483.492 204.384L497.1 227.064C496.524 228.792 494.652 230.772 491.484 233.004C487.164 236.1 483.6 237.648 480.792 237.648C477.984 237.648 475.896 236.64 474.528 234.624L464.376 210.972H461.028V235.488ZM461.028 180.516V196.716H461.568C468.408 196.716 471.828 193.872 471.828 188.184C471.828 185.592 471.144 183.684 469.776 182.46C468.48 181.164 466.32 180.516 463.296 180.516H461.028ZM544.387 234.084C539.851 236.748 534.019 238.08 526.891 238.08C519.763 238.08 513.751 235.668 508.855 230.844C503.959 225.948 501.511 219.216 501.511 210.648C501.511 202.008 503.851 195.06 508.531 189.804C513.283 184.548 519.259 181.92 526.459 181.92C533.659 181.92 539.203 183.756 543.091 187.428C547.051 191.1 549.031 195.564 549.031 200.82C549.031 212.484 542.335 218.316 528.943 218.316H521.491C521.491 220.476 522.067 221.988 523.219 222.852C524.443 223.644 526.207 224.04 528.511 224.04C533.551 224.04 538.339 222.888 542.875 220.584C542.947 220.512 543.271 221.016 543.847 222.096C545.575 225.192 546.439 227.82 546.439 229.98C546.439 232.068 545.755 233.436 544.387 234.084ZM530.887 202.872C530.887 199.848 529.411 198.336 526.459 198.336C525.091 198.336 523.903 198.768 522.895 199.632C521.959 200.424 521.491 201.612 521.491 203.196V206.544H527.323C529.699 206.544 530.887 205.32 530.887 202.872ZM583.411 162.048C583.411 160.968 586.255 160.428 591.943 160.428C593.887 160.428 596.119 160.572 598.639 160.86C601.231 161.076 602.527 161.4 602.527 161.832V218.748H606.307C608.107 218.748 609.295 220.368 609.871 223.608C610.015 224.544 610.087 225.84 610.087 227.496C610.087 229.08 609.583 231.024 608.575 233.328C607.135 236.496 604.831 238.08 601.663 238.08C599.287 238.08 597.163 237.612 595.291 236.676C593.491 235.74 592.267 234.768 591.619 233.76L590.647 232.356C586.687 236.172 581.719 238.08 575.743 238.08C569.767 238.08 564.655 235.596 560.407 230.628C556.159 225.66 554.035 218.748 554.035 209.892C554.035 200.964 556.267 194.088 560.731 189.264C565.195 184.368 570.775 181.92 577.471 181.92C579.415 181.92 581.395 182.136 583.411 182.568V162.048ZM579.847 199.2C575.815 199.2 573.799 202.836 573.799 210.108C573.799 213.78 574.375 216.444 575.527 218.1C576.679 219.684 577.939 220.476 579.307 220.476C580.747 220.476 582.115 219.864 583.411 218.64V200.28C582.187 199.56 580.999 199.2 579.847 199.2ZM621.797 230.628C617.333 225.66 615.101 218.784 615.101 210C615.101 201.216 617.333 194.34 621.797 189.372C626.333 184.404 632.417 181.92 640.049 181.92C647.681 181.92 653.729 184.404 658.193 189.372C662.657 194.34 664.889 201.216 664.889 210C664.889 218.784 662.657 225.66 658.193 230.628C653.729 235.596 647.681 238.08 640.049 238.08C632.417 238.08 626.333 235.596 621.797 230.628ZM640.049 199.956C636.017 199.956 634.001 203.268 634.001 209.892C634.001 216.516 636.017 219.828 640.049 219.828C644.153 219.828 646.205 216.516 646.205 209.892C646.205 203.268 644.153 199.956 640.049 199.956ZM697.364 236.352C697.364 237.216 694.34 237.648 688.292 237.648C681.092 237.36 677.492 236.892 677.492 236.244V198.012H671.984C670.544 198.012 669.824 195.528 669.824 190.56C669.824 189.264 669.932 187.68 670.148 185.808C670.436 183.936 670.976 183 671.768 183H677.492V173.496C677.492 172.056 680.516 171.336 686.564 171.336C692.684 171.336 695.744 171.912 695.744 173.064V179.976L695.852 183H705.032C706.256 183 706.868 185.52 706.868 190.56C706.868 195.6 706.256 198.12 705.032 198.12H697.364V236.352ZM768.281 191.424C769.649 191.424 770.333 193.944 770.333 198.984C770.333 200.496 770.153 202.296 769.793 204.384C769.505 206.4 768.929 207.408 768.065 207.408H754.349V218.208H774.221C775.445 218.208 776.273 219.792 776.705 222.96C776.921 224.328 777.029 225.804 777.029 227.388C777.029 228.9 776.813 230.88 776.381 233.328C775.949 235.776 775.229 237 774.221 237H737.285C734.549 237 733.181 235.884 733.181 233.652V164.208C733.181 162.336 734.009 161.4 735.665 161.4H774.329C775.841 161.4 776.597 164.604 776.597 171.012C776.597 177.348 775.841 180.516 774.329 180.516H754.349V191.424H768.281ZM808.475 236.352C808.475 236.856 805.883 237.108 800.699 237.108C793.499 236.892 789.899 236.496 789.899 235.92V200.928H787.091C785.219 200.928 783.995 199.344 783.419 196.176C783.275 195.24 783.203 194.304 783.203 193.368C783.203 191.136 783.635 188.904 784.499 186.672C785.795 183.504 787.811 181.92 790.547 181.92C793.283 181.92 795.731 182.568 797.891 183.864C800.051 185.16 801.491 186.456 802.211 187.752C806.747 183.864 812.147 181.92 818.411 181.92C824.675 181.92 829.211 183.612 832.019 186.996C834.827 190.38 836.231 195.924 836.231 203.628V236.028C836.231 236.892 833.135 237.324 826.943 237.324C820.823 237.324 817.763 236.892 817.763 236.028V204.816C817.763 201.216 816.503 199.416 813.983 199.416C813.263 199.416 812.255 199.74 810.959 200.388C809.663 200.964 808.835 201.396 808.475 201.684V236.352ZM865.259 237C858.275 237 852.875 234.768 849.059 230.304C845.243 225.768 843.335 219.108 843.335 210.324C843.335 201.468 845.819 194.556 850.787 189.588C855.827 184.548 862.487 182.028 870.767 182.028C879.119 182.028 885.995 183.864 891.395 187.536V241.32C891.395 246.648 889.235 250.716 884.915 253.524C880.595 256.404 875.051 257.844 868.283 257.844C861.515 257.844 855.467 256.98 850.139 255.252C849.419 253.524 849.059 251.976 849.059 250.608C849.059 246 849.815 242.616 851.327 240.456C856.151 242.544 861.299 243.588 866.771 243.588C870.731 243.588 872.711 242.184 872.711 239.376V236.136C869.615 236.712 867.131 237 865.259 237ZM870.227 199.632C865.403 199.632 862.991 203.268 862.991 210.54C862.991 215.076 863.927 218.028 865.799 219.396C867.023 220.332 868.247 220.8 869.471 220.8C870.695 220.8 871.775 220.692 872.711 220.476V199.956C871.847 199.74 871.019 199.632 870.227 199.632ZM920.839 236.352C920.839 236.928 917.527 237.216 910.903 237.216C904.351 237.216 901.075 236.964 901.075 236.46V183.432C901.075 182.928 904.351 182.676 910.903 182.676C917.527 182.676 920.839 182.892 920.839 183.324V236.352ZM920.839 176.952C920.839 177.456 917.527 177.708 910.903 177.708C904.351 177.708 901.075 177.492 901.075 177.06V161.508C901.075 160.788 904.351 160.428 910.903 160.428C917.527 160.428 920.839 160.644 920.839 161.076V176.952ZM953.178 236.352C953.178 236.856 950.586 237.108 945.402 237.108C938.202 236.892 934.602 236.496 934.602 235.92V200.928H931.794C929.922 200.928 928.698 199.344 928.122 196.176C927.978 195.24 927.906 194.304 927.906 193.368C927.906 191.136 928.338 188.904 929.202 186.672C930.498 183.504 932.514 181.92 935.25 181.92C937.986 181.92 940.434 182.568 942.594 183.864C944.754 185.16 946.194 186.456 946.914 187.752C951.45 183.864 956.85 181.92 963.114 181.92C969.378 181.92 973.914 183.612 976.722 186.996C979.53 190.38 980.934 195.924 980.934 203.628V236.028C980.934 236.892 977.838 237.324 971.646 237.324C965.526 237.324 962.466 236.892 962.466 236.028V204.816C962.466 201.216 961.206 199.416 958.686 199.416C957.966 199.416 956.958 199.74 955.662 200.388C954.366 200.964 953.538 201.396 953.178 201.684V236.352ZM1030.91 234.084C1026.38 236.748 1020.55 238.08 1013.42 238.08C1006.29 238.08 1000.28 235.668 995.382 230.844C990.486 225.948 988.038 219.216 988.038 210.648C988.038 202.008 990.378 195.06 995.058 189.804C999.81 184.548 1005.79 181.92 1012.99 181.92C1020.19 181.92 1025.73 183.756 1029.62 187.428C1033.58 191.1 1035.56 195.564 1035.56 200.82C1035.56 212.484 1028.86 218.316 1015.47 218.316H1008.02C1008.02 220.476 1008.59 221.988 1009.75 222.852C1010.97 223.644 1012.73 224.04 1015.04 224.04C1020.08 224.04 1024.87 222.888 1029.4 220.584C1029.47 220.512 1029.8 221.016 1030.37 222.096C1032.1 225.192 1032.97 227.82 1032.97 229.98C1032.97 232.068 1032.28 233.436 1030.91 234.084ZM1017.41 202.872C1017.41 199.848 1015.94 198.336 1012.99 198.336C1011.62 198.336 1010.43 198.768 1009.42 199.632C1008.49 200.424 1008.02 201.612 1008.02 203.196V206.544H1013.85C1016.23 206.544 1017.41 205.32 1017.41 202.872Z"/>
</mask>
<path d="M461.028 235.488C461.028 236.64 457.608 237.216 450.768 237.216C443.856 237.216 440.4 236.676 440.4 235.596V165.18C440.4 162.66 441.732 161.4 444.396 161.4H465.024C483.96 161.4 493.428 168.78 493.428 183.54C493.428 188.004 492.564 192.072 490.836 195.744C489.108 199.344 486.66 202.224 483.492 204.384L497.1 227.064C496.524 228.792 494.652 230.772 491.484 233.004C487.164 236.1 483.6 237.648 480.792 237.648C477.984 237.648 475.896 236.64 474.528 234.624L464.376 210.972H461.028V235.488ZM461.028 180.516V196.716H461.568C468.408 196.716 471.828 193.872 471.828 188.184C471.828 185.592 471.144 183.684 469.776 182.46C468.48 181.164 466.32 180.516 463.296 180.516H461.028ZM544.387 234.084C539.851 236.748 534.019 238.08 526.891 238.08C519.763 238.08 513.751 235.668 508.855 230.844C503.959 225.948 501.511 219.216 501.511 210.648C501.511 202.008 503.851 195.06 508.531 189.804C513.283 184.548 519.259 181.92 526.459 181.92C533.659 181.92 539.203 183.756 543.091 187.428C547.051 191.1 549.031 195.564 549.031 200.82C549.031 212.484 542.335 218.316 528.943 218.316H521.491C521.491 220.476 522.067 221.988 523.219 222.852C524.443 223.644 526.207 224.04 528.511 224.04C533.551 224.04 538.339 222.888 542.875 220.584C542.947 220.512 543.271 221.016 543.847 222.096C545.575 225.192 546.439 227.82 546.439 229.98C546.439 232.068 545.755 233.436 544.387 234.084ZM530.887 202.872C530.887 199.848 529.411 198.336 526.459 198.336C525.091 198.336 523.903 198.768 522.895 199.632C521.959 200.424 521.491 201.612 521.491 203.196V206.544H527.323C529.699 206.544 530.887 205.32 530.887 202.872ZM583.411 162.048C583.411 160.968 586.255 160.428 591.943 160.428C593.887 160.428 596.119 160.572 598.639 160.86C601.231 161.076 602.527 161.4 602.527 161.832V218.748H606.307C608.107 218.748 609.295 220.368 609.871 223.608C610.015 224.544 610.087 225.84 610.087 227.496C610.087 229.08 609.583 231.024 608.575 233.328C607.135 236.496 604.831 238.08 601.663 238.08C599.287 238.08 597.163 237.612 595.291 236.676C593.491 235.74 592.267 234.768 591.619 233.76L590.647 232.356C586.687 236.172 581.719 238.08 575.743 238.08C569.767 238.08 564.655 235.596 560.407 230.628C556.159 225.66 554.035 218.748 554.035 209.892C554.035 200.964 556.267 194.088 560.731 189.264C565.195 184.368 570.775 181.92 577.471 181.92C579.415 181.92 581.395 182.136 583.411 182.568V162.048ZM579.847 199.2C575.815 199.2 573.799 202.836 573.799 210.108C573.799 213.78 574.375 216.444 575.527 218.1C576.679 219.684 577.939 220.476 579.307 220.476C580.747 220.476 582.115 219.864 583.411 218.64V200.28C582.187 199.56 580.999 199.2 579.847 199.2ZM621.797 230.628C617.333 225.66 615.101 218.784 615.101 210C615.101 201.216 617.333 194.34 621.797 189.372C626.333 184.404 632.417 181.92 640.049 181.92C647.681 181.92 653.729 184.404 658.193 189.372C662.657 194.34 664.889 201.216 664.889 210C664.889 218.784 662.657 225.66 658.193 230.628C653.729 235.596 647.681 238.08 640.049 238.08C632.417 238.08 626.333 235.596 621.797 230.628ZM640.049 199.956C636.017 199.956 634.001 203.268 634.001 209.892C634.001 216.516 636.017 219.828 640.049 219.828C644.153 219.828 646.205 216.516 646.205 209.892C646.205 203.268 644.153 199.956 640.049 199.956ZM697.364 236.352C697.364 237.216 694.34 237.648 688.292 237.648C681.092 237.36 677.492 236.892 677.492 236.244V198.012H671.984C670.544 198.012 669.824 195.528 669.824 190.56C669.824 189.264 669.932 187.68 670.148 185.808C670.436 183.936 670.976 183 671.768 183H677.492V173.496C677.492 172.056 680.516 171.336 686.564 171.336C692.684 171.336 695.744 171.912 695.744 173.064V179.976L695.852 183H705.032C706.256 183 706.868 185.52 706.868 190.56C706.868 195.6 706.256 198.12 705.032 198.12H697.364V236.352ZM768.281 191.424C769.649 191.424 770.333 193.944 770.333 198.984C770.333 200.496 770.153 202.296 769.793 204.384C769.505 206.4 768.929 207.408 768.065 207.408H754.349V218.208H774.221C775.445 218.208 776.273 219.792 776.705 222.96C776.921 224.328 777.029 225.804 777.029 227.388C777.029 228.9 776.813 230.88 776.381 233.328C775.949 235.776 775.229 237 774.221 237H737.285C734.549 237 733.181 235.884 733.181 233.652V164.208C733.181 162.336 734.009 161.4 735.665 161.4H774.329C775.841 161.4 776.597 164.604 776.597 171.012C776.597 177.348 775.841 180.516 774.329 180.516H754.349V191.424H768.281ZM808.475 236.352C808.475 236.856 805.883 237.108 800.699 237.108C793.499 236.892 789.899 236.496 789.899 235.92V200.928H787.091C785.219 200.928 783.995 199.344 783.419 196.176C783.275 195.24 783.203 194.304 783.203 193.368C783.203 191.136 783.635 188.904 784.499 186.672C785.795 183.504 787.811 181.92 790.547 181.92C793.283 181.92 795.731 182.568 797.891 183.864C800.051 185.16 801.491 186.456 802.211 187.752C806.747 183.864 812.147 181.92 818.411 181.92C824.675 181.92 829.211 183.612 832.019 186.996C834.827 190.38 836.231 195.924 836.231 203.628V236.028C836.231 236.892 833.135 237.324 826.943 237.324C820.823 237.324 817.763 236.892 817.763 236.028V204.816C817.763 201.216 816.503 199.416 813.983 199.416C813.263 199.416 812.255 199.74 810.959 200.388C809.663 200.964 808.835 201.396 808.475 201.684V236.352ZM865.259 237C858.275 237 852.875 234.768 849.059 230.304C845.243 225.768 843.335 219.108 843.335 210.324C843.335 201.468 845.819 194.556 850.787 189.588C855.827 184.548 862.487 182.028 870.767 182.028C879.119 182.028 885.995 183.864 891.395 187.536V241.32C891.395 246.648 889.235 250.716 884.915 253.524C880.595 256.404 875.051 257.844 868.283 257.844C861.515 257.844 855.467 256.98 850.139 255.252C849.419 253.524 849.059 251.976 849.059 250.608C849.059 246 849.815 242.616 851.327 240.456C856.151 242.544 861.299 243.588 866.771 243.588C870.731 243.588 872.711 242.184 872.711 239.376V236.136C869.615 236.712 867.131 237 865.259 237ZM870.227 199.632C865.403 199.632 862.991 203.268 862.991 210.54C862.991 215.076 863.927 218.028 865.799 219.396C867.023 220.332 868.247 220.8 869.471 220.8C870.695 220.8 871.775 220.692 872.711 220.476V199.956C871.847 199.74 871.019 199.632 870.227 199.632ZM920.839 236.352C920.839 236.928 917.527 237.216 910.903 237.216C904.351 237.216 901.075 236.964 901.075 236.46V183.432C901.075 182.928 904.351 182.676 910.903 182.676C917.527 182.676 920.839 182.892 920.839 183.324V236.352ZM920.839 176.952C920.839 177.456 917.527 177.708 910.903 177.708C904.351 177.708 901.075 177.492 901.075 177.06V161.508C901.075 160.788 904.351 160.428 910.903 160.428C917.527 160.428 920.839 160.644 920.839 161.076V176.952ZM953.178 236.352C953.178 236.856 950.586 237.108 945.402 237.108C938.202 236.892 934.602 236.496 934.602 235.92V200.928H931.794C929.922 200.928 928.698 199.344 928.122 196.176C927.978 195.24 927.906 194.304 927.906 193.368C927.906 191.136 928.338 188.904 929.202 186.672C930.498 183.504 932.514 181.92 935.25 181.92C937.986 181.92 940.434 182.568 942.594 183.864C944.754 185.16 946.194 186.456 946.914 187.752C951.45 183.864 956.85 181.92 963.114 181.92C969.378 181.92 973.914 183.612 976.722 186.996C979.53 190.38 980.934 195.924 980.934 203.628V236.028C980.934 236.892 977.838 237.324 971.646 237.324C965.526 237.324 962.466 236.892 962.466 236.028V204.816C962.466 201.216 961.206 199.416 958.686 199.416C957.966 199.416 956.958 199.74 955.662 200.388C954.366 200.964 953.538 201.396 953.178 201.684V236.352ZM1030.91 234.084C1026.38 236.748 1020.55 238.08 1013.42 238.08C1006.29 238.08 1000.28 235.668 995.382 230.844C990.486 225.948 988.038 219.216 988.038 210.648C988.038 202.008 990.378 195.06 995.058 189.804C999.81 184.548 1005.79 181.92 1012.99 181.92C1020.19 181.92 1025.73 183.756 1029.62 187.428C1033.58 191.1 1035.56 195.564 1035.56 200.82C1035.56 212.484 1028.86 218.316 1015.47 218.316H1008.02C1008.02 220.476 1008.59 221.988 1009.75 222.852C1010.97 223.644 1012.73 224.04 1015.04 224.04C1020.08 224.04 1024.87 222.888 1029.4 220.584C1029.47 220.512 1029.8 221.016 1030.37 222.096C1032.1 225.192 1032.97 227.82 1032.97 229.98C1032.97 232.068 1032.28 233.436 1030.91 234.084ZM1017.41 202.872C1017.41 199.848 1015.94 198.336 1012.99 198.336C1011.62 198.336 1010.43 198.768 1009.42 199.632C1008.49 200.424 1008.02 201.612 1008.02 203.196V206.544H1013.85C1016.23 206.544 1017.41 205.32 1017.41 202.872Z" fill="#FF3C01"/>
<path d="M490.836 195.744L498.048 199.206L498.061 199.178L498.075 199.15L490.836 195.744ZM483.492 204.384L478.985 197.774L472.748 202.027L476.632 208.5L483.492 204.384ZM497.1 227.064L504.689 229.594L505.853 226.103L503.96 222.948L497.1 227.064ZM491.484 233.004L486.876 226.464L486.85 226.483L486.824 226.501L491.484 233.004ZM474.528 234.624L467.177 237.779L467.478 238.483L467.908 239.116L474.528 234.624ZM464.376 210.972L471.727 207.817L469.648 202.972H464.376V210.972ZM461.028 210.972V202.972H453.028V210.972H461.028ZM461.028 180.516V172.516H453.028V180.516H461.028ZM461.028 196.716H453.028V204.716H461.028V196.716ZM469.776 182.46L464.119 188.117L464.276 188.274L464.442 188.422L469.776 182.46ZM453.028 235.488C453.028 233.46 453.839 231.812 454.767 230.718C455.589 229.749 456.432 229.279 456.779 229.104C457.429 228.775 457.728 228.795 457.134 228.895C456.105 229.069 454.083 229.216 450.768 229.216V245.216C454.293 245.216 457.401 245.075 459.792 244.673C460.908 244.485 462.489 244.145 463.994 243.384C465.214 242.768 469.028 240.455 469.028 235.488H453.028ZM450.768 229.216C447.408 229.216 445.321 229.078 444.227 228.907C443.599 228.809 443.842 228.779 444.443 229.061C444.754 229.207 445.609 229.64 446.466 230.578C447.441 231.644 448.4 233.372 448.4 235.596H432.4C432.4 240.861 436.67 243.088 437.653 243.548C439.118 244.236 440.657 244.543 441.757 244.715C444.119 245.084 447.216 245.216 450.768 245.216V229.216ZM448.4 235.596V165.18H432.4V235.596H448.4ZM448.4 165.18C448.4 165.27 448.354 166.778 446.897 168.157C445.522 169.457 444.19 169.4 444.396 169.4V153.4C441.938 153.4 438.608 153.973 435.901 156.533C433.112 159.172 432.4 162.57 432.4 165.18H448.4ZM444.396 169.4H465.024V153.4H444.396V169.4ZM465.024 169.4C473.673 169.4 478.687 171.123 481.409 173.245C483.752 175.071 485.428 177.999 485.428 183.54H501.428C501.428 174.321 498.37 166.179 491.245 160.625C484.499 155.367 475.311 153.4 465.024 153.4V169.4ZM485.428 183.54C485.428 186.945 484.776 189.834 483.597 192.338L498.075 199.15C500.352 194.31 501.428 189.063 501.428 183.54H485.428ZM483.624 192.282C482.479 194.668 480.941 196.441 478.985 197.774L487.999 210.994C492.379 208.007 495.737 204.02 498.048 199.206L483.624 192.282ZM476.632 208.5L490.24 231.18L503.96 222.948L490.352 200.268L476.632 208.5ZM489.511 224.534C489.728 223.882 489.948 223.823 489.451 224.349C488.998 224.828 488.191 225.538 486.876 226.464L496.092 239.544C499.382 237.226 503.23 233.971 504.689 229.594L489.511 224.534ZM486.824 226.501C484.969 227.831 483.497 228.666 482.384 229.149C481.247 229.643 480.765 229.648 480.792 229.648V245.648C486.207 245.648 491.502 242.833 496.144 239.507L486.824 226.501ZM480.792 229.648C480.342 229.648 480.352 229.569 480.598 229.688C480.717 229.745 480.843 229.827 480.957 229.926C481.069 230.025 481.13 230.105 481.148 230.132L467.908 239.116C471.01 243.688 475.802 245.648 480.792 245.648V229.648ZM481.879 231.469L471.727 207.817L457.025 214.127L467.177 237.779L481.879 231.469ZM464.376 202.972H461.028V218.972H464.376V202.972ZM453.028 210.972V235.488H469.028V210.972H453.028ZM453.028 180.516V196.716H469.028V180.516H453.028ZM461.028 204.716H461.568V188.716H461.028V204.716ZM461.568 204.716C465.899 204.716 470.636 203.846 474.378 200.734C478.403 197.387 479.828 192.689 479.828 188.184H463.828C463.828 188.821 463.731 189.016 463.761 188.94C463.811 188.816 463.946 188.6 464.148 188.432C464.318 188.29 464.322 188.362 463.92 188.473C463.498 188.59 462.75 188.716 461.568 188.716V204.716ZM479.828 188.184C479.828 184.282 478.781 179.782 475.11 176.498L464.442 188.422C464.254 188.254 464.1 188.07 463.982 187.89C463.866 187.714 463.808 187.576 463.784 187.509C463.743 187.393 463.828 187.564 463.828 188.184H479.828ZM475.433 176.803C471.912 173.283 467.132 172.516 463.296 172.516V188.516C463.771 188.516 464.137 188.542 464.41 188.576C464.683 188.61 464.833 188.649 464.885 188.665C464.986 188.695 464.599 188.597 464.119 188.117L475.433 176.803ZM463.296 172.516H461.028V188.516H463.296V172.516ZM544.387 234.084L540.962 226.854L540.642 227.006L540.336 227.186L544.387 234.084ZM508.855 230.844L503.198 236.501L503.219 236.522L503.24 236.543L508.855 230.844ZM508.531 189.804L502.597 184.439L502.577 184.461L502.556 184.484L508.531 189.804ZM543.091 187.428L537.598 193.244L537.625 193.269L537.652 193.294L543.091 187.428ZM521.491 218.316V210.316H513.491V218.316H521.491ZM523.219 222.852L518.419 229.252L518.641 229.418L518.873 229.569L523.219 222.852ZM542.875 220.584L546.498 227.717L547.632 227.14L548.532 226.241L542.875 220.584ZM543.847 222.096L536.788 225.861L536.824 225.928L536.862 225.995L543.847 222.096ZM522.895 199.632L528.063 205.739L528.082 205.723L528.101 205.706L522.895 199.632ZM521.491 206.544H513.491V214.544H521.491V206.544ZM540.336 227.186C537.389 228.916 533.082 230.08 526.891 230.08V246.08C534.957 246.08 542.313 244.58 548.438 240.982L540.336 227.186ZM526.891 230.08C521.778 230.08 517.809 228.435 514.47 225.145L503.24 236.543C509.694 242.901 517.749 246.08 526.891 246.08V230.08ZM514.512 225.187C511.456 222.131 509.511 217.628 509.511 210.648H493.511C493.511 220.804 496.462 229.765 503.198 236.501L514.512 225.187ZM509.511 210.648C509.511 203.503 511.41 198.6 514.506 195.124L502.556 184.484C496.292 191.52 493.511 200.513 493.511 210.648H509.511ZM514.465 195.169C517.673 191.621 521.479 189.92 526.459 189.92V173.92C517.039 173.92 508.893 177.475 502.597 184.439L514.465 195.169ZM526.459 189.92C532.339 189.92 535.648 191.402 537.598 193.244L548.584 181.612C542.758 176.11 534.98 173.92 526.459 173.92V189.92ZM537.652 193.294C540.03 195.499 541.031 197.859 541.031 200.82H557.031C557.031 193.269 554.072 186.701 548.531 181.562L537.652 193.294ZM541.031 200.82C541.031 205.109 539.851 206.954 538.755 207.909C537.447 209.048 534.656 210.316 528.943 210.316V226.316C536.622 226.316 543.875 224.668 549.263 219.975C554.863 215.097 557.031 208.195 557.031 200.82H541.031ZM528.943 210.316H521.491V226.316H528.943V210.316ZM513.491 218.316C513.491 221.689 514.398 226.236 518.419 229.252L528.019 216.452C528.798 217.036 529.217 217.745 529.399 218.222C529.552 218.624 529.491 218.729 529.491 218.316H513.491ZM518.873 229.569C521.941 231.554 525.485 232.04 528.511 232.04V216.04C527.796 216.04 527.388 215.977 527.212 215.937C527.039 215.898 527.219 215.911 527.565 216.135L518.873 229.569ZM528.511 232.04C534.823 232.04 540.851 230.585 546.498 227.717L539.252 213.451C535.828 215.191 532.28 216.04 528.511 216.04V232.04ZM548.532 226.241C547.009 227.764 544.968 228.577 542.892 228.577C541.106 228.577 539.787 227.983 539.149 227.643C537.935 226.995 537.213 226.19 537.079 226.044C536.821 225.762 536.651 225.532 536.586 225.442C536.507 225.333 536.457 225.257 536.443 225.234C536.421 225.2 536.52 225.358 536.788 225.861L550.906 218.331C550.598 217.754 550.248 217.12 549.902 216.582C549.773 216.382 549.407 215.814 548.874 215.232C548.69 215.032 547.927 214.191 546.679 213.525C546.024 213.176 544.69 212.577 542.892 212.577C540.803 212.577 538.751 213.395 537.218 214.927L548.532 226.241ZM536.862 225.995C538.304 228.58 538.439 229.796 538.439 229.98H554.439C554.439 225.844 552.846 221.804 550.833 218.197L536.862 225.995ZM538.439 229.98C538.439 230.212 538.393 229.751 538.771 228.994C539.22 228.096 540.011 227.305 540.962 226.854L547.812 241.314C553.028 238.843 554.439 233.792 554.439 229.98H538.439ZM538.887 202.872C538.887 200.175 538.23 196.673 535.505 193.882C532.745 191.055 529.218 190.336 526.459 190.336V206.336C526.652 206.336 525.339 206.373 524.056 205.058C522.807 203.779 522.887 202.545 522.887 202.872H538.887ZM526.459 190.336C523.245 190.336 520.194 191.41 517.689 193.558L528.101 205.706C527.912 205.868 527.631 206.049 527.276 206.178C526.924 206.306 526.631 206.336 526.459 206.336V190.336ZM517.728 193.525C514.5 196.256 513.491 199.996 513.491 203.196H529.491C529.491 203.175 529.496 203.515 529.285 204.049C529.056 204.633 528.646 205.245 528.063 205.739L517.728 193.525ZM513.491 203.196V206.544H529.491V203.196H513.491ZM521.491 214.544H527.323V198.544H521.491V214.544ZM527.323 214.544C529.806 214.544 533.123 213.891 535.737 211.198C538.307 208.549 538.887 205.27 538.887 202.872H522.887C522.887 202.861 522.886 202.533 523.053 202.016C523.232 201.463 523.593 200.737 524.255 200.054C525.681 198.585 527.216 198.544 527.323 198.544V214.544ZM598.639 160.86L597.73 168.808L597.852 168.822L597.974 168.832L598.639 160.86ZM602.527 218.748H594.527V226.748H602.527V218.748ZM609.871 223.608L617.778 222.392L617.763 222.299L617.747 222.208L609.871 223.608ZM608.575 233.328L615.857 236.638L615.881 236.587L615.904 236.535L608.575 233.328ZM595.291 236.676L591.6 243.774L591.656 243.803L591.713 243.831L595.291 236.676ZM591.619 233.76L598.348 229.434L598.274 229.319L598.196 229.206L591.619 233.76ZM590.647 232.356L597.224 227.802L591.869 220.068L585.095 226.595L590.647 232.356ZM560.407 230.628L554.326 235.827L560.407 230.628ZM560.731 189.264L566.602 194.698L566.622 194.676L566.642 194.654L560.731 189.264ZM583.411 182.568L581.734 190.39L591.411 192.464V182.568H583.411ZM575.527 218.1L568.959 222.669L569.007 222.737L569.057 222.805L575.527 218.1ZM583.411 218.64L588.904 224.456L591.411 222.088V218.64H583.411ZM583.411 200.28H591.411V195.704L587.467 193.385L583.411 200.28ZM591.411 162.048C591.411 163.815 590.786 165.349 589.937 166.478C589.169 167.499 588.334 168.045 587.903 168.291C587.118 168.738 586.633 168.769 587.036 168.693C587.696 168.567 589.218 168.428 591.943 168.428V152.428C588.979 152.428 586.235 152.559 584.051 152.973C583.032 153.167 581.48 153.536 579.984 154.388C578.528 155.218 575.411 157.593 575.411 162.048H591.411ZM591.943 168.428C593.508 168.428 595.427 168.545 597.73 168.808L599.547 152.912C596.811 152.599 594.265 152.428 591.943 152.428V168.428ZM597.974 168.832C598.52 168.878 598.936 168.924 599.239 168.966C599.56 169.011 599.662 169.038 599.614 169.026C599.585 169.019 599.457 168.986 599.263 168.916C599.086 168.852 598.713 168.707 598.253 168.438C597.831 168.192 597.002 167.652 596.219 166.673C595.361 165.6 594.527 163.939 594.527 161.832H610.527C610.527 157.251 607.094 155.073 606.315 154.618C605.18 153.956 604.076 153.649 603.495 153.504C602.201 153.18 600.707 153.005 599.303 152.888L597.974 168.832ZM594.527 161.832V218.748H610.527V161.832H594.527ZM602.527 226.748H606.307V210.748H602.527V226.748ZM606.307 226.748C605.506 226.748 604.596 226.554 603.729 226.085C602.891 225.631 602.372 225.07 602.096 224.694C601.647 224.081 601.8 223.914 601.994 225.008L617.747 222.208C617.366 220.062 616.636 217.465 614.999 215.232C613.1 212.642 610.078 210.748 606.307 210.748V226.748ZM601.964 224.824C602.016 225.168 602.087 225.994 602.087 227.496H618.087C618.087 225.686 618.013 223.92 617.778 222.392L601.964 224.824ZM602.087 227.496C602.087 227.458 602.09 227.652 601.965 228.134C601.841 228.609 601.62 229.265 601.245 230.121L615.904 236.535C617.123 233.747 618.087 230.642 618.087 227.496H602.087ZM601.292 230.018C601.159 230.31 601.065 230.436 601.049 230.456C601.038 230.469 601.095 230.395 601.234 230.3C601.301 230.254 601.374 230.212 601.451 230.176C601.527 230.139 601.596 230.115 601.652 230.098C601.767 230.065 601.785 230.08 601.663 230.08V246.08C604.642 246.08 607.64 245.312 610.299 243.484C612.91 241.689 614.682 239.224 615.857 236.638L601.292 230.018ZM601.663 230.08C600.359 230.08 599.488 229.83 598.868 229.521L591.713 243.831C594.838 245.394 598.214 246.08 601.663 246.08V230.08ZM598.981 229.578C598.409 229.281 598.111 229.07 597.998 228.98C597.947 228.94 597.964 228.948 598.026 229.013C598.087 229.078 598.208 229.216 598.348 229.434L584.889 238.086C586.646 240.82 589.317 242.587 591.6 243.774L598.981 229.578ZM598.196 229.206L597.224 227.802L584.069 236.91L585.041 238.314L598.196 229.206ZM585.095 226.595C582.762 228.844 579.845 230.08 575.743 230.08V246.08C583.592 246.08 590.611 243.5 596.198 238.117L585.095 226.595ZM575.743 230.08C572.342 230.08 569.376 228.808 566.487 225.429L554.326 235.827C559.933 242.384 567.191 246.08 575.743 246.08V230.08ZM566.487 225.429C563.857 222.354 562.035 217.521 562.035 209.892H546.035C546.035 219.975 548.46 228.966 554.326 235.827L566.487 225.429ZM562.035 209.892C562.035 202.246 563.934 197.581 566.602 194.698L554.859 183.83C548.599 190.595 546.035 199.682 546.035 209.892H562.035ZM566.642 194.654C569.572 191.441 572.997 189.92 577.471 189.92V173.92C568.552 173.92 560.817 177.295 554.819 183.874L566.642 194.654ZM577.471 189.92C578.818 189.92 580.236 190.069 581.734 190.39L585.087 174.746C582.553 174.203 580.011 173.92 577.471 173.92V189.92ZM591.411 182.568V162.048H575.411V182.568H591.411ZM579.847 191.2C577.598 191.2 575.249 191.721 573.079 193.025C570.921 194.323 569.376 196.132 568.314 198.048C566.323 201.638 565.799 205.995 565.799 210.108H581.799C581.799 208.637 581.902 207.552 582.043 206.79C582.187 206.01 582.336 205.754 582.307 205.806C582.253 205.904 581.968 206.35 581.323 206.738C580.664 207.134 580.08 207.2 579.847 207.2V191.2ZM565.799 210.108C565.799 214.251 566.379 218.959 568.959 222.669L582.094 213.531C582.293 213.817 582.188 213.81 582.05 213.169C581.915 212.546 581.799 211.558 581.799 210.108H565.799ZM569.057 222.805C571.024 225.51 574.397 228.476 579.307 228.476V212.476C580.261 212.476 581.064 212.776 581.593 213.109C582.051 213.397 582.153 213.61 581.996 213.395L569.057 222.805ZM579.307 228.476C583.248 228.476 586.494 226.732 588.904 224.456L577.918 212.824C577.802 212.933 577.871 212.837 578.146 212.714C578.447 212.58 578.855 212.476 579.307 212.476V228.476ZM591.411 218.64V200.28H575.411V218.64H591.411ZM587.467 193.385C585.298 192.109 582.722 191.2 579.847 191.2V207.2C579.578 207.2 579.382 207.157 579.281 207.126C579.189 207.098 579.212 207.092 579.354 207.175L587.467 193.385ZM621.797 230.628L615.846 235.975L615.868 235.999L615.889 236.022L621.797 230.628ZM621.797 189.372L615.889 183.978L615.868 184.001L615.846 184.025L621.797 189.372ZM658.193 189.372L652.242 194.719L658.193 189.372ZM658.193 230.628L652.242 225.281L658.193 230.628ZM627.748 225.281C624.974 222.194 623.101 217.446 623.101 210H607.101C607.101 220.122 609.692 229.126 615.846 235.975L627.748 225.281ZM623.101 210C623.101 202.554 624.974 197.806 627.748 194.719L615.846 184.025C609.692 190.874 607.101 199.878 607.101 210H623.101ZM627.705 194.766C630.514 191.69 634.331 189.92 640.049 189.92V173.92C630.503 173.92 622.152 177.118 615.889 183.978L627.705 194.766ZM640.049 189.92C645.769 189.92 649.52 191.689 652.242 194.719L664.144 184.025C657.938 177.119 649.593 173.92 640.049 173.92V189.92ZM652.242 194.719C655.016 197.806 656.889 202.554 656.889 210H672.889C672.889 199.878 670.298 190.874 664.144 184.025L652.242 194.719ZM656.889 210C656.889 217.446 655.016 222.194 652.242 225.281L664.144 235.975C670.298 229.126 672.889 220.122 672.889 210H656.889ZM652.242 225.281C649.52 228.311 645.769 230.08 640.049 230.08V246.08C649.593 246.08 657.938 242.881 664.144 235.975L652.242 225.281ZM640.049 230.08C634.331 230.08 630.514 228.31 627.705 225.234L615.889 236.022C622.152 242.882 630.503 246.08 640.049 246.08V230.08ZM640.049 191.956C635.377 191.956 631.208 194.126 628.679 198.28C626.542 201.792 626.001 206.029 626.001 209.892H642.001C642.001 208.618 642.1 207.723 642.219 207.136C642.341 206.538 642.447 206.435 642.347 206.6C642.214 206.817 641.867 207.253 641.245 207.594C640.638 207.926 640.155 207.956 640.049 207.956V191.956ZM626.001 209.892C626.001 213.755 626.542 217.992 628.679 221.504C631.208 225.658 635.377 227.828 640.049 227.828V211.828C640.155 211.828 640.638 211.858 641.245 212.19C641.867 212.531 642.214 212.967 642.347 213.184C642.447 213.349 642.341 213.246 642.219 212.648C642.1 212.061 642.001 211.166 642.001 209.892H626.001ZM640.049 227.828C644.692 227.828 648.89 225.716 651.467 221.557C653.651 218.032 654.205 213.771 654.205 209.892H638.205C638.205 211.159 638.105 212.044 637.986 212.621C637.865 213.207 637.76 213.301 637.865 213.131C638.004 212.907 638.35 212.486 638.952 212.162C639.535 211.848 639.983 211.828 640.049 211.828V227.828ZM654.205 209.892C654.205 206.013 653.651 201.752 651.467 198.227C648.89 194.068 644.692 191.956 640.049 191.956V207.956C639.983 207.956 639.535 207.936 638.952 207.622C638.35 207.298 638.004 206.877 637.865 206.653C637.76 206.483 637.865 206.577 637.986 207.163C638.105 207.74 638.205 208.625 638.205 209.892H654.205ZM688.292 237.648L687.972 245.642L688.132 245.648H688.292V237.648ZM677.492 198.012H685.492V190.012H677.492V198.012ZM670.148 185.808L662.241 184.592L662.218 184.741L662.201 184.891L670.148 185.808ZM677.492 183V191H685.492V183H677.492ZM695.744 179.976H687.744V180.119L687.749 180.262L695.744 179.976ZM695.852 183L687.857 183.286L688.133 191H695.852V183ZM697.364 198.12V190.12H689.364V198.12H697.364ZM689.364 236.352C689.364 233.858 690.537 232.027 691.565 230.999C692.471 230.093 693.35 229.693 693.646 229.566C694.247 229.308 694.511 229.326 693.965 229.404C693.034 229.537 691.228 229.648 688.292 229.648V245.648C691.404 245.648 694.134 245.543 696.227 245.244C697.193 245.106 698.592 244.854 699.948 244.272C700.543 244.017 705.364 241.942 705.364 236.352H689.364ZM688.612 229.654C685.067 229.513 682.657 229.334 681.223 229.148C680.443 229.046 680.315 228.987 680.536 229.055C680.59 229.072 681.278 229.273 682.114 229.832C682.715 230.235 685.492 232.25 685.492 236.244H669.492C669.492 240.4 672.382 242.571 673.208 243.125C674.268 243.835 675.294 244.181 675.798 244.338C676.919 244.685 678.142 244.882 679.161 245.014C681.327 245.296 684.318 245.495 687.972 245.642L688.612 229.654ZM685.492 236.244V198.012H669.492V236.244H685.492ZM677.492 190.012H671.984V206.012H677.492V190.012ZM671.984 190.012C672.999 190.012 674.044 190.241 675.014 190.72C675.959 191.185 676.632 191.786 677.076 192.297C677.508 192.794 677.75 193.234 677.871 193.484C677.995 193.74 678.042 193.903 678.048 193.922C678.052 193.936 677.983 193.687 677.922 193.051C677.863 192.442 677.824 191.623 677.824 190.56H661.824C661.824 193.24 661.998 196.02 662.68 198.376C663.018 199.542 663.659 201.251 665.002 202.796C666.55 204.576 668.964 206.012 671.984 206.012V190.012ZM677.824 190.56C677.824 189.674 677.9 188.416 678.095 186.725L662.201 184.891C661.964 186.944 661.824 188.854 661.824 190.56H677.824ZM678.055 187.024C678.144 186.444 678.164 186.894 677.699 187.7C677.433 188.16 676.865 188.987 675.821 189.721C674.68 190.523 673.264 191 671.768 191V175C667.505 175 664.951 177.778 663.84 179.704C662.835 181.446 662.44 183.3 662.241 184.592L678.055 187.024ZM671.768 191H677.492V175H671.768V191ZM685.492 183V173.496H669.492V183H685.492ZM685.492 173.496C685.492 174.797 685.129 176.047 684.494 177.106C683.895 178.103 683.185 178.721 682.709 179.061C681.865 179.664 681.277 179.738 681.613 179.658C682.188 179.522 683.695 179.336 686.564 179.336V163.336C683.385 163.336 680.357 163.51 677.907 164.094C676.731 164.374 675.009 164.898 673.409 166.041C671.605 167.33 669.492 169.821 669.492 173.496H685.492ZM686.564 179.336C689.506 179.336 691.195 179.484 691.969 179.63C692.43 179.717 691.991 179.7 691.237 179.274C690.823 179.04 689.995 178.506 689.228 177.495C688.378 176.375 687.744 174.84 687.744 173.064H703.744C703.744 168.556 700.568 166.169 699.104 165.342C697.585 164.484 695.998 164.107 694.929 163.906C692.643 163.476 689.742 163.336 686.564 163.336V179.336ZM687.744 173.064V179.976H703.744V173.064H687.744ZM687.749 180.262L687.857 183.286L703.847 182.714L703.739 179.69L687.749 180.262ZM695.852 191H705.032V175H695.852V191ZM705.032 191C703.736 191 702.482 190.647 701.406 190.014C700.388 189.415 699.741 188.693 699.369 188.183C698.706 187.273 698.587 186.579 698.635 186.778C698.709 187.084 698.868 188.198 698.868 190.56H714.868C714.868 187.882 714.721 185.216 714.183 183.002C713.925 181.941 713.424 180.302 712.301 178.762C711.022 177.007 708.583 175 705.032 175V191ZM698.868 190.56C698.868 192.922 698.709 194.036 698.635 194.342C698.587 194.541 698.706 193.847 699.369 192.937C699.741 192.427 700.388 191.705 701.406 191.106C702.482 190.473 703.736 190.12 705.032 190.12V206.12C708.583 206.12 711.022 204.113 712.301 202.358C713.424 200.818 713.925 199.179 714.183 198.118C714.721 195.904 714.868 193.238 714.868 190.56H698.868ZM705.032 190.12H697.364V206.12H705.032V190.12ZM689.364 198.12V236.352H705.364V198.12H689.364ZM769.793 204.384L761.91 203.025L761.89 203.138L761.874 203.253L769.793 204.384ZM754.349 207.408V199.408H746.349V207.408H754.349ZM754.349 218.208H746.349V226.208H754.349V218.208ZM776.705 222.96L768.779 224.041L768.79 224.124L768.803 224.208L776.705 222.96ZM776.381 233.328L768.503 231.938V231.938L776.381 233.328ZM754.349 180.516V172.516H746.349V180.516H754.349ZM754.349 191.424H746.349V199.424H754.349V191.424ZM768.281 199.424C767.169 199.424 766.049 199.155 765.036 198.621C764.06 198.108 763.394 197.462 762.976 196.948C762.567 196.446 762.346 196.013 762.243 195.784C762.187 195.661 762.151 195.566 762.131 195.507C762.11 195.447 762.101 195.413 762.1 195.41C762.099 195.407 762.12 195.485 762.149 195.663C762.177 195.838 762.209 196.08 762.238 196.397C762.296 197.04 762.333 197.892 762.333 198.984H778.333C778.333 196.283 778.169 193.531 777.541 191.218C777.234 190.088 776.646 188.397 775.382 186.845C773.924 185.054 771.49 183.424 768.281 183.424V199.424ZM762.333 198.984C762.333 199.9 762.22 201.222 761.91 203.025L777.677 205.743C778.086 203.37 778.333 201.092 778.333 198.984H762.333ZM761.874 203.253C761.781 203.9 761.744 203.48 762.199 202.683C762.461 202.224 763.026 201.397 764.072 200.665C765.211 199.867 766.61 199.408 768.065 199.408V215.408C772.337 215.408 774.936 212.643 776.091 210.621C777.123 208.816 777.517 206.884 777.713 205.515L761.874 203.253ZM768.065 199.408H754.349V215.408H768.065V199.408ZM746.349 207.408V218.208H762.349V207.408H746.349ZM754.349 226.208H774.221V210.208H754.349V226.208ZM774.221 226.208C772.65 226.208 771.232 225.652 770.177 224.838C769.24 224.115 768.808 223.366 768.67 223.102C768.443 222.667 768.605 222.769 768.779 224.041L784.632 221.879C784.373 219.983 783.905 217.709 782.85 215.69C781.767 213.619 779.085 210.208 774.221 210.208V226.208ZM768.803 224.208C768.945 225.109 769.029 226.164 769.029 227.388H785.029C785.029 225.444 784.897 223.547 784.607 221.712L768.803 224.208ZM769.029 227.388C769.029 228.233 768.898 229.696 768.503 231.938L784.26 234.718C784.728 232.064 785.029 229.567 785.029 227.388H769.029ZM768.503 231.938C768.348 232.818 768.264 232.633 768.622 232.026C768.83 231.672 769.334 230.926 770.299 230.242C771.363 229.489 772.73 229 774.221 229V245C778.647 245 781.268 242.084 782.413 240.138C783.49 238.306 783.983 236.286 784.26 234.718L768.503 231.938ZM774.221 229H737.285V245H774.221V229ZM737.285 229C736.8 229 737.921 228.868 739.264 229.964C739.984 230.551 740.522 231.303 740.843 232.091C741.145 232.829 741.181 233.408 741.181 233.652H725.181C725.181 236.48 726.127 239.896 729.15 242.362C731.862 244.574 735.035 245 737.285 245V229ZM741.181 233.652V164.208H725.181V233.652H741.181ZM741.181 164.208C741.181 164.28 741.187 165.829 739.794 167.403C738.236 169.164 736.342 169.4 735.665 169.4V153.4C733.332 153.4 730.196 154.104 727.81 156.801C725.59 159.311 725.181 162.264 725.181 164.208H741.181ZM735.665 169.4H774.329V153.4H735.665V169.4ZM774.329 169.4C773.023 169.4 771.772 169.032 770.717 168.394C769.727 167.794 769.12 167.087 768.792 166.623C768.212 165.804 768.153 165.254 768.244 165.64C768.403 166.312 768.597 167.961 768.597 171.012H784.597C784.597 167.655 784.414 164.498 783.816 161.966C783.53 160.75 782.998 158.999 781.851 157.379C780.563 155.558 778.055 153.4 774.329 153.4V169.4ZM768.597 171.012C768.597 174.025 768.403 175.638 768.249 176.283C768.16 176.654 768.225 176.091 768.817 175.265C769.151 174.798 769.763 174.096 770.752 173.503C771.802 172.875 773.041 172.516 774.329 172.516V188.516C778.014 188.516 780.52 186.403 781.826 184.579C782.985 182.961 783.522 181.21 783.812 179.997C784.414 177.474 784.597 174.335 784.597 171.012H768.597ZM774.329 172.516H754.349V188.516H774.329V172.516ZM746.349 180.516V191.424H762.349V180.516H746.349ZM754.349 199.424H768.281V183.424H754.349V199.424ZM800.699 237.108L800.459 245.104L800.579 245.108H800.699V237.108ZM789.899 200.928H797.899V192.928H789.899V200.928ZM783.419 196.176L775.512 197.392L775.529 197.5L775.548 197.607L783.419 196.176ZM784.499 186.672L777.095 183.643L777.066 183.713L777.038 183.784L784.499 186.672ZM797.891 183.864L793.775 190.724V190.724L797.891 183.864ZM802.211 187.752L795.218 191.637L799.977 200.204L807.417 193.826L802.211 187.752ZM810.959 200.388L814.208 207.698L814.374 207.625L814.537 207.543L810.959 200.388ZM808.475 201.684L803.477 195.437L800.475 197.839V201.684H808.475ZM800.475 236.352C800.475 232.538 803.007 230.491 803.852 229.915C804.789 229.278 805.598 229.047 805.749 229.003C806.161 228.883 806.276 228.906 805.757 228.957C804.861 229.044 803.232 229.108 800.699 229.108V245.108C803.35 245.108 805.609 245.046 807.305 244.881C808.082 244.806 809.169 244.672 810.229 244.363C810.703 244.224 811.756 243.891 812.854 243.143C813.862 242.457 816.475 240.292 816.475 236.352H800.475ZM800.939 229.112C797.387 229.005 794.946 228.859 793.474 228.697C792.677 228.609 792.498 228.551 792.659 228.595C792.677 228.6 793.322 228.759 794.133 229.237C794.549 229.483 795.368 230.019 796.149 230.979C796.996 232.021 797.899 233.713 797.899 235.92H781.899C781.899 240.538 785.424 242.676 786.003 243.018C787.038 243.629 788.021 243.915 788.489 244.042C789.55 244.328 790.721 244.491 791.724 244.601C793.852 244.835 796.811 244.995 800.459 245.104L800.939 229.112ZM797.899 235.92V200.928H781.899V235.92H797.899ZM789.899 192.928H787.091V208.928H789.899V192.928ZM787.091 192.928C787.791 192.928 788.626 193.086 789.452 193.509C790.262 193.923 790.794 194.453 791.099 194.848C791.607 195.506 791.473 195.753 791.29 194.745L775.548 197.607C775.941 199.767 776.707 202.39 778.439 204.632C780.444 207.227 783.485 208.928 787.091 208.928V192.928ZM791.326 194.96C791.243 194.421 791.203 193.892 791.203 193.368H775.203C775.203 194.716 775.307 196.059 775.512 197.392L791.326 194.96ZM791.203 193.368C791.203 192.193 791.426 190.938 791.96 189.56L777.038 183.784C775.844 186.87 775.203 190.079 775.203 193.368H791.203ZM791.903 189.701C792.196 188.985 792.312 189.095 791.926 189.399C791.723 189.557 791.46 189.707 791.16 189.806C790.866 189.904 790.644 189.92 790.547 189.92V173.92C787.515 173.92 784.556 174.841 782.04 176.817C779.638 178.705 778.097 181.191 777.095 183.643L791.903 189.701ZM790.547 189.92C791.962 189.92 792.965 190.238 793.775 190.724L802.007 177.004C798.497 174.898 794.604 173.92 790.547 173.92V189.92ZM793.775 190.724C794.538 191.182 794.995 191.534 795.239 191.754C795.492 191.982 795.396 191.958 795.218 191.637L809.204 183.867C807.48 180.763 804.63 178.578 802.007 177.004L793.775 190.724ZM807.417 193.826C810.429 191.245 813.956 189.92 818.411 189.92V173.92C810.338 173.92 803.065 176.483 797.005 181.678L807.417 193.826ZM818.411 189.92C823.345 189.92 825.137 191.23 825.862 192.105L838.175 181.887C833.285 175.993 826.005 173.92 818.411 173.92V189.92ZM825.862 192.105C826.865 193.313 828.231 196.525 828.231 203.628H844.231C844.231 195.323 842.789 187.447 838.175 181.887L825.862 192.105ZM828.231 203.628V236.028H844.231V203.628H828.231ZM828.231 236.028C828.231 233.467 829.463 231.617 830.496 230.609C831.406 229.72 832.281 229.333 832.561 229.215C833.138 228.974 833.374 228.997 832.803 229.077C831.824 229.213 829.953 229.324 826.943 229.324V245.324C830.124 245.324 832.898 245.219 835.015 244.923C835.992 244.787 837.389 244.54 838.74 243.975C839.406 243.695 840.572 243.133 841.676 242.055C842.902 240.857 844.231 238.805 844.231 236.028H828.231ZM826.943 229.324C823.97 229.324 822.131 229.213 821.176 229.079C820.618 229 820.868 228.979 821.457 229.228C821.744 229.35 822.622 229.744 823.53 230.642C824.56 231.66 825.763 233.5 825.763 236.028H809.763C809.763 238.772 811.061 240.814 812.283 242.022C813.382 243.108 814.547 243.678 815.217 243.962C816.571 244.535 817.968 244.784 818.94 244.921C821.044 245.219 823.796 245.324 826.943 245.324V229.324ZM825.763 236.028V204.816H809.763V236.028H825.763ZM825.763 204.816C825.763 202.328 825.372 199.036 823.372 196.178C821.008 192.801 817.411 191.416 813.983 191.416V207.416C813.662 207.416 812.996 207.357 812.197 206.976C811.359 206.577 810.701 205.978 810.264 205.354C809.863 204.78 809.752 204.34 809.736 204.271C809.72 204.204 809.763 204.357 809.763 204.816H825.763ZM813.983 191.416C811.3 191.416 808.883 192.482 807.381 193.233L814.537 207.543C814.73 207.447 814.879 207.379 814.987 207.334C815.095 207.288 815.143 207.273 815.135 207.275C815.13 207.277 815.035 207.307 814.863 207.34C814.695 207.371 814.392 207.416 813.983 207.416V191.416ZM807.71 193.078C806.596 193.573 804.783 194.393 803.477 195.437L813.473 207.931C813.321 208.052 813.199 208.138 813.127 208.187C813.052 208.238 813 208.27 812.979 208.283C812.942 208.305 812.963 208.291 813.066 208.237C813.278 208.127 813.643 207.949 814.208 207.698L807.71 193.078ZM800.475 201.684V236.352H816.475V201.684H800.475ZM849.059 230.304L842.938 235.454L842.958 235.478L842.978 235.502L849.059 230.304ZM850.787 189.588L845.13 183.931L850.787 189.588ZM891.395 187.536H899.395V183.302L895.894 180.921L891.395 187.536ZM884.915 253.524L880.555 246.816L880.516 246.842L880.478 246.868L884.915 253.524ZM850.139 255.252L842.755 258.329L844.17 261.726L847.671 262.862L850.139 255.252ZM851.327 240.456L854.505 233.114L848.516 230.522L844.773 235.868L851.327 240.456ZM872.711 236.136H880.711V226.51L871.248 228.271L872.711 236.136ZM865.799 219.396L870.659 213.041L870.59 212.988L870.519 212.937L865.799 219.396ZM872.711 220.476L874.51 228.271L880.711 226.84V220.476H872.711ZM872.711 199.956H880.711V193.71L874.652 192.195L872.711 199.956ZM865.259 229C860.127 229 857.146 227.452 855.14 225.106L842.978 235.502C848.605 242.084 856.424 245 865.259 245V229ZM855.181 225.154C853.044 222.614 851.335 218.103 851.335 210.324H835.335C835.335 220.113 837.442 228.922 842.938 235.454L855.181 225.154ZM851.335 210.324C851.335 203.008 853.343 198.346 856.444 195.245L845.13 183.931C838.295 190.766 835.335 199.928 835.335 210.324H851.335ZM856.444 195.245C859.741 191.948 864.238 190.028 870.767 190.028V174.028C860.736 174.028 851.914 177.148 845.13 183.931L856.444 195.245ZM870.767 190.028C877.961 190.028 883.15 191.603 886.897 194.151L895.894 180.921C888.841 176.125 880.278 174.028 870.767 174.028V190.028ZM883.395 187.536V241.32H899.395V187.536H883.395ZM883.395 241.32C883.395 244.051 882.513 245.544 880.555 246.816L889.275 260.232C895.957 255.888 899.395 249.245 899.395 241.32H883.395ZM880.478 246.868C877.817 248.641 873.945 249.844 868.283 249.844V265.844C876.157 265.844 883.373 264.167 889.353 260.18L880.478 246.868ZM868.283 249.844C862.185 249.844 856.992 249.064 852.607 247.642L847.671 262.862C853.942 264.896 860.846 265.844 868.283 265.844V249.844ZM857.524 252.175C857.07 251.086 857.059 250.608 857.059 250.608H841.059C841.059 253.344 841.769 255.962 842.755 258.329L857.524 252.175ZM857.059 250.608C857.059 248.712 857.218 247.326 857.434 246.358C857.652 245.382 857.882 245.043 857.881 245.044L844.773 235.868C841.847 240.05 841.059 245.444 841.059 250.608H857.059ZM848.15 247.798C854.018 250.338 860.252 251.588 866.771 251.588V235.588C862.347 235.588 858.285 234.75 854.505 233.114L848.15 247.798ZM866.771 251.588C869.454 251.588 872.899 251.156 875.854 249.061C879.314 246.607 880.711 242.906 880.711 239.376H864.711C864.711 239.141 864.754 238.551 865.1 237.815C865.465 237.038 866.019 236.421 866.599 236.009C867.129 235.633 867.519 235.542 867.53 235.539C867.538 235.537 867.314 235.588 866.771 235.588V251.588ZM880.711 239.376V236.136H864.711V239.376H880.711ZM871.248 228.271C868.356 228.809 866.421 229 865.259 229V245C867.841 245 870.874 244.615 874.175 244.001L871.248 228.271ZM870.227 191.632C865.468 191.632 860.998 193.62 858.134 197.937C855.653 201.676 854.991 206.273 854.991 210.54H870.991C870.991 209.139 871.11 208.151 871.255 207.495C871.401 206.836 871.537 206.676 871.467 206.781C871.362 206.94 871.09 207.243 870.654 207.462C870.25 207.665 870.032 207.632 870.227 207.632V191.632ZM854.991 210.54C854.991 215.378 855.832 222.02 861.079 225.855L870.519 212.937C871.352 213.546 871.444 214.131 871.319 213.738C871.185 213.316 870.991 212.332 870.991 210.54H854.991ZM860.94 225.751C863.192 227.473 866.079 228.8 869.471 228.8V212.8C869.903 212.8 870.257 212.887 870.492 212.977C870.711 213.06 870.765 213.122 870.659 213.041L860.94 225.751ZM869.471 228.8C871.145 228.8 872.849 228.654 874.51 228.271L870.912 212.681C870.701 212.73 870.246 212.8 869.471 212.8V228.8ZM880.711 220.476V199.956H864.711V220.476H880.711ZM874.652 192.195C873.23 191.84 871.749 191.632 870.227 191.632V207.632C870.29 207.632 870.464 207.64 870.771 207.717L874.652 192.195ZM912.839 236.352C912.839 232.119 915.91 230.095 916.524 229.721C917.408 229.183 918.134 229.006 918.198 228.989C918.455 228.922 918.376 228.968 917.662 229.03C916.364 229.143 914.163 229.216 910.903 229.216V245.216C914.267 245.216 917.034 245.145 919.048 244.97C919.989 244.888 921.153 244.754 922.237 244.471C922.716 244.346 923.752 244.052 924.843 243.388C925.664 242.888 928.839 240.729 928.839 236.352H912.839ZM910.903 229.216C907.673 229.216 905.466 229.152 904.145 229.051C903.425 228.995 903.295 228.951 903.488 228.996C903.515 229.002 904.182 229.142 905.021 229.593C905.447 229.823 906.319 230.343 907.159 231.312C908.079 232.374 909.075 234.136 909.075 236.46H893.075C893.075 241.317 896.936 243.412 897.436 243.681C898.479 244.243 899.453 244.485 899.89 244.586C900.902 244.819 902.001 244.933 902.918 245.003C904.874 245.154 907.581 245.216 910.903 245.216V229.216ZM909.075 236.46V183.432H893.075V236.46H909.075ZM909.075 183.432C909.075 185.756 908.079 187.518 907.159 188.58C906.319 189.549 905.447 190.069 905.021 190.299C904.182 190.75 903.515 190.89 903.488 190.896C903.295 190.941 903.425 190.897 904.145 190.841C905.466 190.74 907.673 190.676 910.903 190.676V174.676C907.581 174.676 904.874 174.738 902.918 174.889C902.001 174.959 900.902 175.073 899.89 175.306C899.453 175.407 898.479 175.649 897.436 176.211C896.936 176.48 893.075 178.575 893.075 183.432H909.075ZM910.903 190.676C914.176 190.676 916.448 190.731 917.834 190.821C918.58 190.87 918.787 190.912 918.682 190.892C918.631 190.882 918.5 190.855 918.314 190.802C918.147 190.755 917.798 190.649 917.361 190.45C916.996 190.283 916.108 189.847 915.206 188.964C914.235 188.015 912.839 186.105 912.839 183.324H928.839C928.839 180.489 927.417 178.527 926.394 177.527C925.44 176.593 924.475 176.109 924.006 175.895C923.038 175.453 922.149 175.267 921.754 175.189C920.821 175.007 919.785 174.914 918.875 174.855C916.95 174.729 914.254 174.676 910.903 174.676V190.676ZM912.839 183.324V236.352H928.839V183.324H912.839ZM912.839 176.952C912.839 174.6 913.857 172.828 914.783 171.771C915.628 170.807 916.501 170.293 916.923 170.068C917.756 169.624 918.416 169.488 918.438 169.483C918.62 169.442 918.479 169.486 917.748 169.542C916.406 169.644 914.169 169.708 910.903 169.708V185.708C914.26 185.708 916.992 185.646 918.962 185.496C919.887 185.426 920.988 185.313 921.998 185.082C922.434 184.983 923.404 184.744 924.444 184.19C924.912 183.941 928.839 181.853 928.839 176.952H912.839ZM910.903 169.708C907.666 169.708 905.424 169.653 904.058 169.563C903.322 169.515 903.127 169.473 903.241 169.496C903.295 169.506 903.429 169.534 903.618 169.588C903.788 169.637 904.141 169.745 904.581 169.948C904.951 170.119 905.839 170.56 906.739 171.45C907.709 172.41 909.075 174.311 909.075 177.06H893.075C893.075 179.863 894.467 181.817 895.488 182.826C896.439 183.767 897.404 184.258 897.876 184.476C898.848 184.924 899.741 185.113 900.137 185.191C901.07 185.376 902.104 185.469 903.006 185.529C904.916 185.655 907.587 185.708 910.903 185.708V169.708ZM909.075 177.06V161.508H893.075V177.06H909.075ZM909.075 161.508C909.075 164.851 907.073 166.852 906.106 167.596C905.174 168.313 904.352 168.581 904.194 168.633C903.792 168.766 903.737 168.724 904.406 168.65C905.593 168.52 907.693 168.428 910.903 168.428V152.428C907.56 152.428 904.747 152.516 902.658 152.746C901.689 152.852 900.405 153.035 899.184 153.438C898.617 153.625 897.487 154.039 896.351 154.914C895.179 155.815 893.075 157.985 893.075 161.508H909.075ZM910.903 168.428C914.176 168.428 916.448 168.483 917.834 168.573C918.58 168.622 918.787 168.664 918.682 168.644C918.631 168.634 918.5 168.607 918.314 168.554C918.147 168.507 917.798 168.401 917.361 168.202C916.996 168.035 916.108 167.599 915.206 166.716C914.235 165.767 912.839 163.857 912.839 161.076H928.839C928.839 158.241 927.417 156.279 926.394 155.279C925.44 154.345 924.475 153.861 924.006 153.647C923.038 153.205 922.149 153.019 921.754 152.941C920.821 152.759 919.785 152.666 918.875 152.607C916.95 152.481 914.254 152.428 910.903 152.428V168.428ZM912.839 161.076V176.952H928.839V161.076H912.839ZM945.402 237.108L945.162 245.104L945.282 245.108H945.402V237.108ZM934.602 200.928H942.602V192.928H934.602V200.928ZM928.122 196.176L920.215 197.392L920.232 197.5L920.251 197.607L928.122 196.176ZM929.202 186.672L921.798 183.643L921.769 183.713L921.742 183.784L929.202 186.672ZM942.594 183.864L938.478 190.724V190.724L942.594 183.864ZM946.914 187.752L939.921 191.637L944.68 200.204L952.12 193.826L946.914 187.752ZM955.662 200.388L958.911 207.698L959.077 207.625L959.24 207.543L955.662 200.388ZM953.178 201.684L948.181 195.437L945.178 197.839V201.684H953.178ZM945.178 236.352C945.178 232.538 947.71 230.491 948.556 229.915C949.492 229.278 950.302 229.047 950.452 229.003C950.864 228.883 950.979 228.906 950.46 228.957C949.564 229.044 947.936 229.108 945.402 229.108V245.108C948.053 245.108 950.312 245.046 952.008 244.881C952.786 244.806 953.872 244.672 954.932 244.363C955.407 244.224 956.459 243.891 957.558 243.143C958.565 242.457 961.178 240.292 961.178 236.352H945.178ZM945.642 229.112C942.09 229.005 939.649 228.859 938.177 228.697C937.381 228.609 937.201 228.551 937.362 228.595C937.38 228.6 938.025 228.759 938.836 229.237C939.252 229.483 940.071 230.019 940.852 230.979C941.699 232.021 942.602 233.713 942.602 235.92H926.602C926.602 240.538 930.127 242.676 930.706 243.018C931.741 243.629 932.724 243.915 933.192 244.042C934.253 244.328 935.424 244.491 936.427 244.601C938.555 244.835 941.514 244.995 945.162 245.104L945.642 229.112ZM942.602 235.92V200.928H926.602V235.92H942.602ZM934.602 192.928H931.794V208.928H934.602V192.928ZM931.794 192.928C932.494 192.928 933.329 193.086 934.155 193.509C934.965 193.923 935.497 194.453 935.802 194.848C936.31 195.506 936.176 195.753 935.993 194.745L920.251 197.607C920.644 199.767 921.41 202.39 923.142 204.632C925.147 207.227 928.188 208.928 931.794 208.928V192.928ZM936.029 194.96C935.946 194.421 935.906 193.892 935.906 193.368H919.906C919.906 194.716 920.01 196.059 920.215 197.392L936.029 194.96ZM935.906 193.368C935.906 192.193 936.129 190.938 936.663 189.56L921.742 183.784C920.547 186.87 919.906 190.079 919.906 193.368H935.906ZM936.606 189.701C936.9 188.985 937.015 189.095 936.629 189.399C936.427 189.557 936.163 189.707 935.863 189.806C935.569 189.904 935.347 189.92 935.25 189.92V173.92C932.218 173.92 929.259 174.841 926.744 176.817C924.341 178.705 922.801 181.191 921.798 183.643L936.606 189.701ZM935.25 189.92C936.665 189.92 937.668 190.238 938.478 190.724L946.71 177.004C943.2 174.898 939.307 173.92 935.25 173.92V189.92ZM938.478 190.724C939.241 191.182 939.698 191.534 939.942 191.754C940.195 191.982 940.099 191.958 939.921 191.637L953.907 183.867C952.183 180.763 949.334 178.578 946.71 177.004L938.478 190.724ZM952.12 193.826C955.132 191.245 958.659 189.92 963.114 189.92V173.92C955.041 173.92 947.768 176.483 941.708 181.678L952.12 193.826ZM963.114 189.92C968.048 189.92 969.84 191.23 970.566 192.105L982.879 181.887C977.988 175.993 970.708 173.92 963.114 173.92V189.92ZM970.566 192.105C971.568 193.313 972.934 196.525 972.934 203.628H988.934C988.934 195.323 987.492 187.447 982.879 181.887L970.566 192.105ZM972.934 203.628V236.028H988.934V203.628H972.934ZM972.934 236.028C972.934 233.467 974.167 231.617 975.199 230.609C976.109 229.72 976.985 229.333 977.264 229.215C977.841 228.974 978.077 228.997 977.507 229.077C976.527 229.213 974.657 229.324 971.646 229.324V245.324C974.828 245.324 977.601 245.219 979.718 244.923C980.695 244.787 982.092 244.54 983.443 243.975C984.11 243.695 985.275 243.133 986.379 242.055C987.605 240.857 988.934 238.805 988.934 236.028H972.934ZM971.646 229.324C968.673 229.324 966.835 229.213 965.879 229.079C965.321 229 965.571 228.979 966.16 229.228C966.448 229.35 967.325 229.744 968.233 230.642C969.263 231.66 970.466 233.5 970.466 236.028H954.466C954.466 238.772 955.764 240.814 956.986 242.022C958.086 243.108 959.25 243.678 959.92 243.962C961.274 244.535 962.671 244.784 963.643 244.921C965.748 245.219 968.5 245.324 971.646 245.324V229.324ZM970.466 236.028V204.816H954.466V236.028H970.466ZM970.466 204.816C970.466 202.328 970.075 199.036 968.075 196.178C965.711 192.801 962.114 191.416 958.686 191.416V207.416C958.365 207.416 957.699 207.357 956.9 206.976C956.062 206.577 955.404 205.978 954.967 205.354C954.566 204.78 954.455 204.34 954.439 204.271C954.423 204.204 954.466 204.357 954.466 204.816H970.466ZM958.686 191.416C956.003 191.416 953.586 192.482 952.084 193.233L959.24 207.543C959.434 207.447 959.582 207.379 959.69 207.334C959.798 207.288 959.846 207.273 959.838 207.275C959.833 207.277 959.738 207.307 959.566 207.34C959.398 207.371 959.095 207.416 958.686 207.416V191.416ZM952.413 193.078C951.299 193.573 949.486 194.393 948.181 195.437L958.176 207.931C958.024 208.052 957.902 208.138 957.83 208.187C957.755 208.238 957.703 208.27 957.682 208.283C957.645 208.305 957.666 208.291 957.77 208.237C957.981 208.127 958.346 207.949 958.911 207.698L952.413 193.078ZM945.178 201.684V236.352H961.178V201.684H945.178ZM1030.91 234.084L1027.49 226.854L1027.17 227.006L1026.86 227.186L1030.91 234.084ZM995.382 230.844L989.726 236.501L989.747 236.522L989.768 236.543L995.382 230.844ZM995.058 189.804L989.124 184.439L989.104 184.461L989.084 184.484L995.058 189.804ZM1029.62 187.428L1024.13 193.244L1024.15 193.269L1024.18 193.294L1029.62 187.428ZM1008.02 218.316V210.316H1000.02V218.316H1008.02ZM1009.75 222.852L1004.95 229.252L1005.17 229.418L1005.4 229.569L1009.75 222.852ZM1029.4 220.584L1033.03 227.717L1034.16 227.14L1035.06 226.241L1029.4 220.584ZM1030.37 222.096L1023.32 225.861L1023.35 225.928L1023.39 225.995L1030.37 222.096ZM1009.42 199.632L1014.59 205.739L1014.61 205.723L1014.63 205.706L1009.42 199.632ZM1008.02 206.544H1000.02V214.544H1008.02V206.544ZM1026.86 227.186C1023.92 228.916 1019.61 230.08 1013.42 230.08V246.08C1021.48 246.08 1028.84 244.58 1034.97 240.982L1026.86 227.186ZM1013.42 230.08C1008.3 230.08 1004.34 228.435 1001 225.145L989.768 236.543C996.221 242.901 1004.28 246.08 1013.42 246.08V230.08ZM1001.04 225.187C997.983 222.131 996.038 217.628 996.038 210.648H980.038C980.038 220.804 982.99 229.765 989.726 236.501L1001.04 225.187ZM996.038 210.648C996.038 203.503 997.938 198.6 1001.03 195.124L989.084 184.484C982.819 191.52 980.038 200.513 980.038 210.648H996.038ZM1000.99 195.169C1004.2 191.621 1008.01 189.92 1012.99 189.92V173.92C1003.57 173.92 995.421 177.475 989.124 184.439L1000.99 195.169ZM1012.99 189.92C1018.87 189.92 1022.18 191.402 1024.13 193.244L1035.11 181.612C1029.29 176.11 1021.51 173.92 1012.99 173.92V189.92ZM1024.18 193.294C1026.56 195.499 1027.56 197.859 1027.56 200.82H1043.56C1043.56 193.269 1040.6 186.701 1035.06 181.562L1024.18 193.294ZM1027.56 200.82C1027.56 205.109 1026.38 206.954 1025.28 207.909C1023.97 209.048 1021.18 210.316 1015.47 210.316V226.316C1023.15 226.316 1030.4 224.668 1035.79 219.975C1041.39 215.097 1043.56 208.195 1043.56 200.82H1027.56ZM1015.47 210.316H1008.02V226.316H1015.47V210.316ZM1000.02 218.316C1000.02 221.689 1000.93 226.236 1004.95 229.252L1014.55 216.452C1015.33 217.036 1015.74 217.745 1015.93 218.222C1016.08 218.624 1016.02 218.729 1016.02 218.316H1000.02ZM1005.4 229.569C1008.47 231.554 1012.01 232.04 1015.04 232.04V216.04C1014.32 216.04 1013.92 215.977 1013.74 215.937C1013.57 215.898 1013.75 215.911 1014.09 216.135L1005.4 229.569ZM1015.04 232.04C1021.35 232.04 1027.38 230.585 1033.03 227.717L1025.78 213.451C1022.36 215.191 1018.81 216.04 1015.04 216.04V232.04ZM1035.06 226.241C1033.54 227.764 1031.49 228.577 1029.42 228.577C1027.63 228.577 1026.31 227.983 1025.68 227.643C1024.46 226.995 1023.74 226.19 1023.61 226.044C1023.35 225.762 1023.18 225.532 1023.11 225.442C1023.03 225.333 1022.98 225.257 1022.97 225.234C1022.95 225.2 1023.05 225.358 1023.32 225.861L1037.43 218.331C1037.13 217.754 1036.78 217.12 1036.43 216.582C1036.3 216.382 1035.93 215.814 1035.4 215.232C1035.22 215.032 1034.45 214.191 1033.21 213.525C1032.55 213.176 1031.22 212.577 1029.42 212.577C1027.33 212.577 1025.28 213.395 1023.75 214.927L1035.06 226.241ZM1023.39 225.995C1024.83 228.58 1024.97 229.796 1024.97 229.98H1040.97C1040.97 225.844 1039.37 221.804 1037.36 218.197L1023.39 225.995ZM1024.97 229.98C1024.97 230.212 1024.92 229.751 1025.3 228.994C1025.75 228.096 1026.54 227.305 1027.49 226.854L1034.34 241.314C1039.56 238.843 1040.97 233.792 1040.97 229.98H1024.97ZM1025.41 202.872C1025.41 200.175 1024.76 196.673 1022.03 193.882C1019.27 191.055 1015.75 190.336 1012.99 190.336V206.336C1013.18 206.336 1011.87 206.373 1010.58 205.058C1009.33 203.779 1009.41 202.545 1009.41 202.872H1025.41ZM1012.99 190.336C1009.77 190.336 1006.72 191.41 1004.22 193.558L1014.63 205.706C1014.44 205.868 1014.16 206.049 1013.8 206.178C1013.45 206.306 1013.16 206.336 1012.99 206.336V190.336ZM1004.25 193.525C1001.03 196.256 1000.02 199.996 1000.02 203.196H1016.02C1016.02 203.175 1016.02 203.515 1015.81 204.049C1015.58 204.633 1015.17 205.245 1014.59 205.739L1004.25 193.525ZM1000.02 203.196V206.544H1016.02V203.196H1000.02ZM1008.02 214.544H1013.85V198.544H1008.02V214.544ZM1013.85 214.544C1016.33 214.544 1019.65 213.891 1022.26 211.198C1024.83 208.549 1025.41 205.27 1025.41 202.872H1009.41C1009.41 202.861 1009.41 202.533 1009.58 202.016C1009.76 201.463 1010.12 200.737 1010.78 200.054C1012.21 198.585 1013.74 198.544 1013.85 198.544V214.544Z" fill="white" mask="url(#path-3-outside-2_1_19)"/>
<defs>
<linearGradient id="paint0_linear_1_19" x1="57.1628" y1="43" x2="384.721" y2="356" gradientUnits="userSpaceOnUse">
<stop stop-color="#FF1800"/>
<stop offset="0.995" stop-color="#FF6800"/>
</linearGradient>
</defs>
</svg>
